<?xml version="1.0" encoding="UTF-8"?>
<svg version="1.1" xmlns="http://www.w3.org/2000/svg" width="500" height="500">
<path d="M0 0 C1.04929687 0.55171875 2.09859375 1.1034375 3.1796875 1.671875 C13.40527358 7.18698618 23.25530682 13.37717016 33.16967773 19.42651367 C43.64018943 25.81054847 54.21399352 32.00556297 64.82324219 38.15625 C79.92096393 46.91877649 94.99393361 55.72655695 109.9375 64.75 C110.87215088 65.31009766 111.80680176 65.87019531 112.76977539 66.44726562 C123.49766604 72.96577991 131.75146632 80.39093894 135.4921875 92.796875 C136.58116069 97.5213433 137.12515434 102.04548822 137.12698364 106.89324951 C137.12980347 108.04819916 137.13262329 109.2031488 137.13552856 110.39309692 C137.13249222 112.27277664 137.13249222 112.27277664 137.12939453 114.19042969 C137.13075085 115.53467862 137.13253207 116.87892719 137.13470459 118.22317505 C137.13925328 121.86388025 137.13749945 125.50455703 137.1343255 129.14526272 C137.13178656 132.96559664 137.13414391 136.78592819 137.13571167 140.60626221 C137.13752977 147.02527298 137.1351374 153.44427223 137.13037109 159.86328125 C137.12493844 167.26474202 137.12668532 174.6661752 137.1321975 182.0676353 C137.13674996 188.437289 137.13736848 194.80693444 137.13475883 201.17658925 C137.13320658 204.97408197 137.13297311 208.77156178 137.13629532 212.56905365 C137.13920477 216.14447684 137.13714239 219.71986485 137.13140106 223.29528427 C137.12946843 225.21845197 137.13240177 227.14162269 137.13552856 229.06478882 C137.12092843 235.10314227 136.92356322 240.98785347 136.12379265 246.97703934 C135.93378148 250.08211164 136.9310931 252.26053393 138.3125 255 C144.19348608 267.77480866 144.4612219 280.68393629 140 293.98046875 C134.81222176 307.4448011 125.2194464 317.87808533 112.625 324.875 C110 326 110 326 108 326 C108 326.66 108 327.32 108 328 C93.85218413 332.19194544 78.25346189 331.3284612 65.12109375 324.50390625 C58.87114571 320.85582887 58.87114571 320.85582887 56.22265625 318.25390625 C53.40875916 316.66645288 51.2926045 316.80704798 48.15039062 317.34960938 C44.19263664 318.54664123 41.07832919 320.856143 37.75 323.25 C36.17019082 324.34377791 34.58942485 325.43617487 33.0078125 326.52734375 C32.19086914 327.09694824 31.37392578 327.66655273 30.53222656 328.25341797 C23.14363467 333.34963725 15.56264356 338.16747411 8 343 C7.36739258 343.40718262 6.73478516 343.81436523 6.08300781 344.23388672 C0.07554328 348.07114198 -4.79346421 351.02664154 -12 351 C-12.91394531 351.05929687 -13.82789063 351.11859375 -14.76953125 351.1796875 C-36.07057481 352.10938645 -56.12023131 334.95166085 -73.59388733 324.29154968 C-79.67233358 320.58562046 -85.77001235 316.91203645 -91.875 313.25 C-92.90383301 312.63286133 -93.93266602 312.01572266 -94.99267578 311.37988281 C-100.69772462 307.96319749 -106.41512952 304.56849785 -112.14599609 301.1953125 C-115.75499228 299.06996334 -119.35888973 296.93608282 -122.96142578 294.79980469 C-125.14570993 293.50601208 -127.33156045 292.21511561 -129.51904297 290.92675781 C-132.6522836 289.07984558 -135.77762011 287.22006197 -138.89901733 285.35321045 C-140.10989758 284.63150961 -141.32305619 283.91361436 -142.53872681 283.20001221 C-155.34231944 275.6771769 -165.54684061 267.81481566 -171.3125 253.8125 C-173.23653264 245.94145737 -173.15421463 238.23165876 -173.16113281 230.16113281 C-173.16576754 228.75924552 -173.17079307 227.35735947 -173.17617798 225.95547485 C-173.18924021 222.16188379 -173.19573471 218.36831037 -173.20018864 214.57470036 C-173.20312913 212.19978922 -173.20723572 209.8248828 -173.21169281 207.44997406 C-173.22535094 200.00530625 -173.23502605 192.56064936 -173.2388947 185.1159699 C-173.24337265 176.54818386 -173.26091538 167.98055758 -173.2898953 159.4128201 C-173.31157037 152.77221902 -173.32160207 146.13166269 -173.32293582 139.49102664 C-173.3239796 135.53305064 -173.32979597 131.57522516 -173.34775543 127.61728668 C-173.36433755 123.89075798 -173.366343 120.16449133 -173.35761642 116.43793869 C-173.35648953 114.43503652 -173.37012785 112.43214263 -173.3843689 110.42929077 C-173.3245037 97.35107314 -170.40402536 84.65818821 -161 75 C-148.61969943 65.11678765 -134.05219847 57.54757205 -120.30908203 49.76074219 C-112.25156684 45.18025015 -104.30671493 40.42186782 -96.36889648 35.63769531 C-88.71621555 31.02550713 -81.03588591 26.46339855 -73.33520508 21.93188477 C-68.34736916 18.99214818 -63.37656332 16.02657119 -58.421875 13.03125 C-57.31070313 12.36029297 -56.19953125 11.68933594 -55.0546875 10.99804688 C-52.91728529 9.70575228 -50.78173713 8.41038401 -48.6484375 7.11132812 C-33.16980918 -2.2428823 -17.32563328 -9.41273211 0 0 Z " fill="#F7F7F5" transform="translate(268,74)"/>
<path d="M0 0 C1.04929687 0.55171875 2.09859375 1.1034375 3.1796875 1.671875 C13.40527358 7.18698618 23.25530682 13.37717016 33.16967773 19.42651367 C43.64018943 25.81054847 54.21399352 32.00556297 64.82324219 38.15625 C79.92096393 46.91877649 94.99393361 55.72655695 109.9375 64.75 C110.87215088 65.31009766 111.80680176 65.87019531 112.76977539 66.44726562 C123.49766604 72.96577991 131.75146632 80.39093894 135.4921875 92.796875 C136.56217396 97.4389701 137.12486148 101.89322874 137.12025452 106.65682983 C137.12231651 108.30996185 137.12231651 108.30996185 137.12442017 109.99649048 C137.12082489 111.19051483 137.11722961 112.38453918 137.11352539 113.61474609 C137.11367142 114.88358643 137.11381744 116.15242676 137.1139679 117.4597168 C137.114254 120.92620738 137.10838743 124.39266313 137.10139394 127.85914564 C137.09512934 131.48663117 137.09455415 135.11411756 137.09336853 138.74160767 C137.09026436 145.60502998 137.08206332 152.46843631 137.07201904 159.3318516 C137.06082949 167.14804296 137.05534029 174.96423509 137.05032361 182.78043246 C137.03987993 198.85363099 137.02229822 214.92681345 137 231 C136.46423843 230.59275192 135.92847687 230.18550385 135.3764801 229.76591492 C134.66644333 229.22916641 133.95640656 228.69241791 133.22485352 228.1394043 C132.17371117 227.34290718 132.17371117 227.34290718 131.10133362 226.53031921 C128.15316259 224.38328139 125.11490796 222.60718026 121.9375 220.8125 C120.79152344 220.15894531 119.64554687 219.50539063 118.46484375 218.83203125 C116.06689843 217.56412104 113.76905282 216.43433525 111.28344727 215.38549805 C110.19990967 214.92828369 109.11637207 214.47106934 108 214 C107.99853344 213.44561752 107.99706688 212.89123505 107.99555588 212.3200531 C107.95844079 198.80621452 107.89911321 185.29262891 107.81609726 171.7789917 C107.7766174 165.24376431 107.74443116 158.70867178 107.72900391 152.17333984 C107.71384107 145.86433351 107.6794011 139.55569791 107.63169098 133.24685669 C107.61687353 130.84200262 107.60895878 128.43709562 107.60811615 126.03219604 C107.60574597 122.65908454 107.57865994 119.2869971 107.54589844 115.9140625 C107.5509288 114.92359421 107.55595917 113.93312592 107.56114197 112.91264343 C107.47005206 106.83592802 106.57706655 102.03053169 103 97 C100.80802888 95.18975991 98.99858426 93.92039552 96.5625 92.5625 C95.88566162 92.16184326 95.20882324 91.76118652 94.51147461 91.34838867 C92.93633879 90.42010772 91.35518839 89.50198904 89.76953125 88.59179688 C86.62570521 86.78487288 83.50004953 84.94857838 80.375 83.109375 C76.67533767 80.93299298 72.97418117 78.75930917 69.26660156 76.59643555 C61.24477036 71.91630649 53.2637126 67.17452343 45.3125 62.375 C35.70860746 56.58148101 26.01990732 50.94957634 16.28808594 45.37402344 C8.88963955 41.1240446 1.57457294 36.7589909 -5.65991211 32.23535156 C-11.55503626 28.56841223 -16.0935077 26.90049792 -23 28 C-26.93265966 29.65359715 -30.45585944 31.85865702 -34.0625 34.125 C-36.20930833 35.42632101 -38.35645278 36.72708764 -40.50390625 38.02734375 C-41.58945801 38.69362793 -42.67500977 39.35991211 -43.79345703 40.04638672 C-48.65033756 43.00548204 -53.57626273 45.84162417 -58.5 48.6875 C-69.89574856 55.32284404 -81.23460366 62.05324506 -92.56620789 68.79730225 C-93.2417421 69.19934875 -93.91727631 69.60139526 -94.61328125 70.015625 C-95.63256462 70.62232025 -95.63256462 70.62232025 -96.67243958 71.24127197 C-101.01901802 73.82673921 -105.37157371 76.40184249 -109.72860718 78.96965027 C-112.67401933 80.70564679 -115.61780305 82.44439478 -118.56152344 84.18325806 C-119.96583322 85.01174519 -121.37093027 85.83889949 -122.77685547 86.66464233 C-124.73223009 87.81329569 -126.68473472 88.96669065 -128.63671875 90.12109375 C-129.74748779 90.7752124 -130.85825684 91.42933105 -132.00268555 92.10327148 C-137.59444565 95.64178938 -141.23648728 98.42930438 -143 105 C-143.43925112 109.38463878 -143.42011802 113.748379 -143.40405273 118.15209961 C-143.41434761 120.12408577 -143.41434761 120.12408577 -143.42485046 122.13591003 C-143.44273307 125.72689853 -143.44162283 129.31764202 -143.43590808 132.9086616 C-143.4328091 135.91303837 -143.43891653 138.91736856 -143.44494683 141.92173868 C-143.45897434 149.01256278 -143.45744559 156.10326634 -143.44604492 163.1940918 C-143.43456515 170.49519982 -143.4486408 177.79594044 -143.4754414 185.09700006 C-143.49763359 191.37919375 -143.50422789 197.6612724 -143.49836498 203.94350249 C-143.49500261 207.6895815 -143.49736222 211.43542504 -143.51461601 215.18147087 C-143.53302652 219.36071741 -143.51886203 223.53925396 -143.50170898 227.71850586 C-143.51137695 228.95044678 -143.52104492 230.1823877 -143.53100586 231.45166016 C-143.47097754 238.44208575 -142.77332092 243.05984147 -139 249 C-137.22880794 250.85408975 -137.22880794 250.85408975 -135.12890625 251.984375 C-134.34016113 252.46197266 -133.55141602 252.93957031 -132.73876953 253.43164062 C-131.83497559 253.94919922 -130.93118164 254.46675781 -130 255 C-128.94796387 255.62583984 -127.89592773 256.25167969 -126.81201172 256.89648438 C-123.83414646 258.66548691 -120.84182534 260.40841048 -117.84469604 262.14453125 C-108.87504701 267.34361225 -99.92990782 272.56821947 -91.17211914 278.11889648 C-74.22893045 288.83851159 -56.98320681 299.12671965 -39.671875 309.23828125 C-36.85126944 310.8896566 -34.0693173 312.57554383 -31.328125 314.35546875 C-26.21152841 317.60853333 -21.85441491 320.2600123 -15.640625 319.72265625 C-10.37176453 318.28073438 -5.91556832 315.32190843 -1.33203125 312.44384766 C3.59835527 309.3912612 8.62083793 306.49185662 13.625 303.5625 C14.68090332 302.93520996 15.73680664 302.30791992 16.82470703 301.66162109 C17.82356934 301.0733252 18.82243164 300.4850293 19.8515625 299.87890625 C20.74697754 299.3485376 21.64239258 298.81816895 22.56494141 298.27172852 C24.7505895 297.1302566 26.59148568 296.4593486 29 296 C29.51949219 297.08539063 30.03898438 298.17078125 30.57421875 299.2890625 C31.27820848 300.73458808 31.98266025 302.1798887 32.6875 303.625 C33.02716797 304.33785156 33.36683594 305.05070312 33.71679688 305.78515625 C35.44757169 309.31140775 37.17253703 312.37344039 39.76953125 315.3359375 C42 318 42 318 42 321 C39.92724609 322.66650391 39.92724609 322.66650391 37.0234375 324.4765625 C35.43801147 325.47659302 35.43801147 325.47659302 33.82055664 326.49682617 C32.67220397 327.20648647 31.52368187 327.91587268 30.375 328.625 C29.21738466 329.34965723 28.06040211 330.07532631 26.90405273 330.80200195 C24.62958492 332.23025139 22.35216502 333.65333275 20.07275391 335.07373047 C16.93664975 337.03971345 13.83363689 339.04875505 10.7434082 341.08569336 C8.18617735 342.76191454 5.59238026 344.37886964 3 346 C2.18789063 346.54398437 1.37578125 347.08796875 0.5390625 347.6484375 C-7.75339395 352.63493125 -17.71548081 352.25360488 -26.9765625 350.40625 C-43.55685662 344.99636551 -58.77998299 333.32903256 -73.59388733 324.29154968 C-79.67233358 320.58562046 -85.77001235 316.91203645 -91.875 313.25 C-92.90383301 312.63286133 -93.93266602 312.01572266 -94.99267578 311.37988281 C-100.69772462 307.96319749 -106.41512952 304.56849785 -112.14599609 301.1953125 C-115.75499228 299.06996334 -119.35888973 296.93608282 -122.96142578 294.79980469 C-125.14570993 293.50601208 -127.33156045 292.21511561 -129.51904297 290.92675781 C-132.6522836 289.07984558 -135.77762011 287.22006197 -138.89901733 285.35321045 C-140.10989758 284.63150961 -141.32305619 283.91361436 -142.53872681 283.20001221 C-155.34231944 275.6771769 -165.54684061 267.81481566 -171.3125 253.8125 C-173.23653264 245.94145737 -173.15421463 238.23165876 -173.16113281 230.16113281 C-173.16576754 228.75924552 -173.17079307 227.35735947 -173.17617798 225.95547485 C-173.18924021 222.16188379 -173.19573471 218.36831037 -173.20018864 214.57470036 C-173.20312913 212.19978922 -173.20723572 209.8248828 -173.21169281 207.44997406 C-173.22535094 200.00530625 -173.23502605 192.56064936 -173.2388947 185.1159699 C-173.24337265 176.54818386 -173.26091538 167.98055758 -173.2898953 159.4128201 C-173.31157037 152.77221902 -173.32160207 146.13166269 -173.32293582 139.49102664 C-173.3239796 135.53305064 -173.32979597 131.57522516 -173.34775543 127.61728668 C-173.36433755 123.89075798 -173.366343 120.16449133 -173.35761642 116.43793869 C-173.35648953 114.43503652 -173.37012785 112.43214263 -173.3843689 110.42929077 C-173.3245037 97.35107314 -170.40402536 84.65818821 -161 75 C-148.61969943 65.11678765 -134.05219847 57.54757205 -120.30908203 49.76074219 C-112.25156684 45.18025015 -104.30671493 40.42186782 -96.36889648 35.63769531 C-88.71621555 31.02550713 -81.03588591 26.46339855 -73.33520508 21.93188477 C-68.34736916 18.99214818 -63.37656332 16.02657119 -58.421875 13.03125 C-57.31070313 12.36029297 -56.19953125 11.68933594 -55.0546875 10.99804688 C-52.91728529 9.70575228 -50.78173713 8.41038401 -48.6484375 7.11132812 C-33.16980918 -2.2428823 -17.32563328 -9.41273211 0 0 Z " fill="#0AA6A5" transform="translate(268,74)"/>
<path d="M0 0 C8.4908377 5.6897366 13.87765736 13.28044952 17 23 C18.12691238 30.35754211 17.11815748 37.70402246 16 45 C25.57745323 51.96331744 35.18757629 58.87775851 44.875 65.6875 C45.72416992 66.2870752 46.57333984 66.88665039 47.44824219 67.50439453 C48.24649414 68.06368652 49.04474609 68.62297852 49.8671875 69.19921875 C50.56956543 69.69252686 51.27194336 70.18583496 51.99560547 70.6940918 C53.97323646 71.98256295 55.79774854 73.14249869 58 74 C58.825 73.54625 59.65 73.0925 60.5 72.625 C65.70287356 70.20938013 70.36116491 70.14778311 76 71 C83.67440934 73.83759673 88.29764233 78.82753588 92 86 C94.25898657 92.77695971 93.57109329 99.53057255 90.40234375 105.890625 C86.87680064 111.19367034 82.06894081 115.06484373 76 117 C68.65642639 117.87109977 62.01471868 117.59159328 56 113 C52.2527287 109.47020427 49.48800428 105.98662897 48 101 C48.17788638 98.83252287 48.36627794 96.66589418 48.5625 94.5 C48.32962944 90.77018993 48.05012203 88.13586655 45.45117188 85.32470703 C40.92364481 81.63681818 35.88477588 78.73549458 30.86865234 75.76953125 C27.82218125 73.89031231 24.926155 71.86975146 22.01953125 69.78125 C21.03686279 69.0792749 20.05419434 68.3772998 19.04174805 67.65405273 C17.12144468 66.27703432 15.20733895 64.89132504 13.30004883 63.49633789 C12.41986084 62.88008545 11.53967285 62.26383301 10.6328125 61.62890625 C9.85824707 61.07275635 9.08368164 60.51660645 8.28564453 59.94360352 C5.98471641 58.7202966 5.98471641 58.7202966 3.41748047 59.71069336 C1.47424497 60.74707254 -0.4271658 61.86168501 -2.3125 63 C-10.3579073 67.65695282 -19.23468556 68.18325052 -28.125 65.8125 C-31.53792001 64.72248214 -34.01233798 63.41062213 -36.8125 61.1875 C-38.3903125 60.1046875 -38.3903125 60.1046875 -40 59 C-45.12454879 60.18115734 -49.49879291 63.91054028 -53.75 66.875 C-54.99124634 67.73206543 -54.99124634 67.73206543 -56.25756836 68.60644531 C-62.78601575 73.12475438 -69.27774317 77.69617533 -75.74316406 82.30419922 C-80.79544271 85.89772135 -80.79544271 85.89772135 -83 87 C-83.36233199 90.46279304 -83.4447023 93.90751877 -83.55859375 97.38671875 C-84.35645806 103.91790888 -87.64236959 109.34885581 -92.80078125 113.421875 C-99.21737172 117.59793753 -105.50139308 118.16750462 -113 117 C-119.90613204 114.44675574 -125.18628919 108.70986302 -128.375 102.1875 C-129.80702803 94.88415707 -129.74141656 88.60983593 -126 82 C-122.38191902 76.67995569 -118.272964 72.81386911 -112 71 C-106.48446869 70.29143539 -102.10875624 70.45914153 -97.046875 72.7734375 C-95.02308688 73.63125617 -95.02308688 73.63125617 -93 74 C-90.33072915 72.80812408 -88.89936732 71.90249622 -86.75 70.0625 C-85.54755991 69.11985571 -84.34299749 68.17991456 -83.13671875 67.2421875 C-82.48493652 66.72366211 -81.8331543 66.20513672 -81.16162109 65.67089844 C-77.07835092 62.51459608 -72.80574087 59.62294069 -68.5625 56.6875 C-66.89639724 55.52579755 -65.23100381 54.36307697 -63.56640625 53.19921875 C-62.40842529 52.38976807 -62.40842529 52.38976807 -61.22705078 51.56396484 C-58.13788067 49.39456956 -55.06721644 47.20030466 -52 45 C-52.15855469 43.99582031 -52.31710938 42.99164063 -52.48046875 41.95703125 C-54.00079032 30.37743911 -54.20320067 19.95123076 -47.01171875 10.34375 C-35.07899958 -3.67049704 -17.05716893 -9.5572229 0 0 Z " fill="#1D3841" transform="translate(268,166)"/>
<path d="M0 0 C5.77812471 3.90931409 10.74981697 8.22065906 14.83398438 13.90625 C15.630625 14.97552734 15.630625 14.97552734 16.44335938 16.06640625 C24.04968531 27.34410238 26.30950924 41.50909744 24.14648438 54.78125 C20.51388297 70.85046593 11.31366774 82.72634822 -2.16601562 91.90625 C-7.56601562 94.90625 -7.56601562 94.90625 -10.16601562 94.90625 C-10.16601562 95.56625 -10.16601562 96.22625 -10.16601562 96.90625 C-24.38039353 101.11791753 -39.75371025 100.1267053 -53.00976562 93.48046875 C-57.69917436 90.81164349 -61.61961107 88.01261317 -65.16601562 83.90625 C-65.7925 83.19726562 -66.41898437 82.48828125 -67.06445312 81.7578125 C-77.1790743 69.83835186 -81.50574266 56.46428718 -81.16601562 40.90625 C-79.80902622 27.08830411 -73.55074886 14.21607225 -63.16601562 4.90625 C-44.94376106 -8.85620352 -19.93659495 -12.72166036 0 0 Z " fill="#0AA7A6" transform="translate(386.166015625,305.09375)"/>
<path d="M0 0 C2.5703125 1.58203125 2.5703125 1.58203125 5.125 3.8125 C6.07246094 4.63105469 7.01992187 5.44960938 7.99609375 6.29296875 C8.99982756 7.19260676 10.00107981 8.09502013 11 9 C11.50934082 9.45971191 12.01868164 9.91942383 12.54345703 10.39306641 C14.60949833 12.26438186 16.67044012 14.13951693 18.70263672 16.04760742 C22.17263803 19.3042374 25.78018831 22.23972593 29.671875 24.9765625 C31.56275324 27.85737111 31.73467804 30.20158052 31.6015625 33.61474609 C30.4130655 38.32725245 26.71473182 40.96536202 23.125 44 C22.34938721 44.68989014 21.57377441 45.37978027 20.7746582 46.09057617 C19.23373597 47.45794579 17.68385183 48.81529297 16.12451172 50.16162109 C14.3185706 51.72433503 12.54293716 53.30945081 10.78515625 54.92578125 C1.11037987 63.81493669 1.11037987 63.81493669 -3 64.5 C-6 64 -6 64 -8.4375 61.9375 C-10.56817299 57.93183478 -10.26946479 56.36072292 -9 52 C-6.5447347 48.95645897 -3.68848503 46.44435303 -0.75 43.875 C0.77645017 42.49784849 2.30250163 41.1202549 3.828125 39.7421875 C4.54806641 39.10120117 5.26800781 38.46021484 6.00976562 37.79980469 C8.42932138 35.61175697 10.72583395 33.3378427 13 31 C12.33355469 30.46632813 11.66710937 29.93265625 10.98046875 29.3828125 C-9.71133333 12.65573333 -9.71133333 12.65573333 -10.3125 7.125 C-10 4 -10 4 -8.375 1.625 C-5.28578728 -0.48867186 -3.69628184 -0.3960302 0 0 Z " fill="#1E3841" transform="translate(210,275)"/>
<path d="M0 0 C3.1875 1.25 3.1875 1.25 5.1875 2.875 C6.67668055 6.41180382 6.12030298 8.54576997 5.1875 12.25 C3.42206969 14.70511931 1.29634943 16.66067675 -0.9375 18.6875 C-2.13332048 19.82361869 -3.32734575 20.96163003 -4.51953125 22.1015625 C-5.09268066 22.64329102 -5.66583008 23.18501953 -6.25634766 23.74316406 C-8.74321486 26.15121935 -10.95207201 28.76844498 -13.1875 31.40625 C-15.68782614 34.24315851 -18.39812643 36.85847511 -21.11328125 39.48828125 C-23.00339136 41.34309306 -23.00339136 41.34309306 -24.8125 44.25 C-25.4725 44.25 -26.1325 44.25 -26.8125 44.25 C-27.06 44.86875 -27.3075 45.4875 -27.5625 46.125 C-29.07072744 48.68898664 -29.98886058 49.36257047 -32.8125 50.25 C-39.5073191 49.66750898 -43.076845 44.60531852 -47.5625 40.0625 C-48.43777344 39.21107422 -49.31304687 38.35964844 -50.21484375 37.48242188 C-51.04628906 36.64904297 -51.87773437 35.81566406 -52.734375 34.95703125 C-53.49331055 34.1988208 -54.25224609 33.44061035 -55.03417969 32.65942383 C-57.15935747 29.78004717 -57.63090095 27.80350847 -57.8125 24.25 C-56.25 21.375 -56.25 21.375 -53.8125 19.25 C-51.0625 18.5 -51.0625 18.5 -47.8125 19.25 C-43.77681762 22.04693045 -40.52978892 25.33884921 -37.5 29.1875 C-36.943125 29.868125 -36.38625 30.54875 -35.8125 31.25 C-32.81113625 31.59493943 -32.81113625 31.59493943 -31.234375 29.74609375 C-30.68265625 29.06675781 -30.1309375 28.38742187 -29.5625 27.6875 C-27.24245826 24.91417279 -24.9012998 22.27466287 -22.3125 19.75 C-19.87860268 17.35946833 -17.59894441 14.89953738 -15.375 12.3125 C-14.1878465 10.95802956 -13.0003332 9.6038744 -11.8125 8.25 C-11.16152344 7.48429687 -10.51054687 6.71859375 -9.83984375 5.9296875 C-4.76058997 0.31216983 -4.76058997 0.31216983 0 0 Z " fill="#F4F7F6" transform="translate(383.8125,324.75)"/>
<path d="M0 0 C5.14404177 2.42935728 8.49158607 5.90851695 11 11 C11.8246573 16.52000338 11.74825056 21.4480729 9.3125 26.5 C5.30458559 30.83288045 1.86754402 33.73445129 -4 35 C-9.70669897 35.10292643 -13.52686532 33.65983747 -18 30 C-22.56732305 24.9389123 -23.30734392 21.13276172 -23.2109375 14.5 C-22.78477177 9.44914691 -20.66920997 6.39914281 -16.9375 3.1875 C-11.54268463 -0.8299157 -6.60924294 -0.87682072 0 0 Z " fill="#F5F5F4" transform="translate(256,180)"/>
<path d="M0 0 C1.66611905 -0.042721 3.33382885 -0.04063832 5 0 C5.33 0.33 5.66 0.66 6 1 C7.66617115 1.04063832 9.33388095 1.042721 11 1 C11.33 1.66 11.66 2.32 12 3 C13.65 3 15.3 3 17 3 C17.28875 3.804375 17.5775 4.60875 17.875 5.4375 C18.73262568 8.1326468 18.73262568 8.1326468 21 9 C22.155 9.4125 23.31 9.825 24.5 10.25 C28.53605088 12.26802544 28.5321606 13.01586449 30 17 C32.31006947 17.69621948 32.31006947 17.69621948 35 18 C37.80270283 19.27395583 40.47361199 20.69494516 43.13671875 22.23828125 C47.72523121 24.87920778 51.83827333 26.79193631 57 28 C57 28.66 57 29.32 57 30 C57.66 30 58.32 30 59 30 C59 30.99 59 31.98 59 33 C61.64 33.66 64.28 34.32 67 35 C67 34.34 67 33.68 67 33 C67.66 33.33 68.32 33.66 69 34 C69 35.32 69 36.64 69 38 C69.7425 38.433125 70.485 38.86625 71.25 39.3125 C74.93295384 41.5724944 76.64088213 43.9838067 78 48 C79.74372382 58.79655666 79.10463113 70.09511088 79 81 C79.66 81.33 80.32 81.66 81 82 C80.42387565 97.00516796 79.78748007 112.0043689 79 127 C79.66 127.33 80.32 127.66 81 128 C80.91621094 128.96421875 80.83242188 129.9284375 80.74609375 130.921875 C80.64425781 132.18515625 80.54242188 133.4484375 80.4375 134.75 C80.33308594 136.00296875 80.22867188 137.2559375 80.12109375 138.546875 C80.0188601 141.46218305 80.1852664 143.27629205 81 146 C81.15652506 150.852277 80.95584634 155.22076831 80 160 C81.2375 160.0825 82.475 160.165 83.75 160.25 C87.72588832 160.70875635 87.72588832 160.70875635 90 163.125 C91.78830003 165.22095142 91.78830003 165.22095142 94.015625 165.0390625 C96.02352883 164.77929872 98.01468008 164.39706398 100 164 C99.42415568 166.38564077 98.77772405 168.66682784 98 171 C94.19193485 169.54129364 90.57581562 167.83985619 86.9375 166 C85.91527344 165.484375 84.89304687 164.96875 83.83984375 164.4375 C82.90269531 163.963125 81.96554687 163.48875 81 163 C79.66693581 162.33279532 78.33365476 161.66602343 77 161 C76.99780016 160.16842628 76.99780016 160.16842628 76.99555588 159.3200531 C76.95844079 145.80621452 76.89911321 132.29262891 76.81609726 118.7789917 C76.7766174 112.24376431 76.74443116 105.70867178 76.72900391 99.17333984 C76.71384107 92.86433351 76.6794011 86.55569791 76.63169098 80.24685669 C76.61687353 77.84200262 76.60895878 75.43709562 76.60811615 73.03219604 C76.60574597 69.65908454 76.57865994 66.2869971 76.54589844 62.9140625 C76.5509288 61.92359421 76.55595917 60.93312592 76.56114197 59.91264343 C76.47005206 53.83592802 75.57706655 49.03053169 72 44 C69.80802888 42.18975991 67.99858426 40.92039552 65.5625 39.5625 C64.88566162 39.16184326 64.20882324 38.76118652 63.51147461 38.34838867 C61.93633879 37.42010772 60.35518839 36.50198904 58.76953125 35.59179688 C55.62570521 33.78487288 52.50004953 31.94857838 49.375 30.109375 C45.0656675 27.57471644 40.75292509 25.04605899 36.43560791 22.52502441 C28.53675662 17.91155412 20.66355688 13.25683396 12.8125 8.5625 C11.74974854 7.92997314 10.68699707 7.29744629 9.59204102 6.64575195 C8.61936279 6.06269287 7.64668457 5.47963379 6.64453125 4.87890625 C5.79221924 4.3691626 4.93990723 3.85941895 4.06176758 3.33422852 C2 2 2 2 0 0 Z " fill="#299999" transform="translate(299,127)"/>
<path d="M0 0 C0 0.66 0 1.32 0 2 C-0.99 2 -1.98 2 -3 2 C-3.0825 2.61617187 -3.165 3.23234375 -3.25 3.8671875 C-4 6 -4 6 -5.8125 7.1953125 C-6.534375 7.50210938 -7.25625 7.80890625 -8 8.125 C-11.15762198 9.33799788 -11.15762198 9.33799788 -13 12 C-13.99 12 -14.98 12 -16 12 C-16.309375 13.1446875 -16.309375 13.1446875 -16.625 14.3125 C-18.47392358 17.92630518 -20.23028945 18.62260576 -24 20 C-24.99 19.979375 -25.98 19.95875 -27 19.9375 C-30.97243091 20.02025898 -32.84415339 21.70483883 -36 24 C-36.66 24 -37.32 24 -38 24 C-38.9507491 26.85224731 -39.12162914 28.58795138 -39.11352539 31.54301453 C-39.1134549 32.47481537 -39.1133844 33.40661621 -39.11331177 34.36665344 C-39.10556229 35.8977198 -39.10556229 35.8977198 -39.09765625 37.4597168 C-39.09619598 38.53660767 -39.09473572 39.61349854 -39.0932312 40.72302246 C-39.08942023 43.0671147 -39.08329846 45.41120404 -39.07516479 47.75528526 C-39.06240313 51.47747242 -39.05588462 55.1996239 -39.05102539 58.92182922 C-39.03861088 67.51240761 -39.01707917 76.1029551 -38.99479675 84.69351196 C-38.97289371 93.16307664 -38.95504614 101.63262667 -38.94406128 110.10221291 C-38.93763667 113.74668872 -38.92512167 117.39110997 -38.91235352 121.03556824 C-38.84160399 152.52657361 -38.84160399 152.52657361 -42 167 C-42.33 167 -42.66 167 -43 167 C-43.09353853 149.40600574 -43.16402572 131.81208934 -43.20724869 114.21790314 C-43.2278534 106.04817887 -43.25593381 97.87860932 -43.30175781 89.70898438 C-43.34168985 82.58638512 -43.36744802 75.46389795 -43.37635398 68.34118986 C-43.38155802 64.57148071 -43.39374522 60.80209213 -43.42292023 57.03248596 C-43.45019034 53.48002454 -43.45842188 49.92801392 -43.45243073 46.37545776 C-43.45404564 44.45894605 -43.47550762 42.54248276 -43.49768066 40.62609863 C-43.46423769 33.5993982 -42.81083352 28.96276105 -39 23 C-36.9140625 20.98413086 -36.9140625 20.98413086 -34.625 19.52734375 C-33.74714844 18.95999512 -32.86929688 18.39264648 -31.96484375 17.80810547 C-30.49724609 16.91309326 -30.49724609 16.91309326 -29 16 C-27.90816406 15.32469238 -26.81632812 14.64938477 -25.69140625 13.95361328 C-22.75141067 12.15141873 -19.79085111 10.38646801 -16.81982422 8.63598633 C-14.97114942 7.54548149 -13.12804759 6.44594764 -11.28515625 5.34570312 C-10.10708953 4.64789918 -8.92871578 3.95061325 -7.75 3.25390625 C-6.69296875 2.62814697 -5.6359375 2.0023877 -4.546875 1.35766602 C-2 0 -2 0 0 0 Z " fill="#D7F9F6" transform="translate(167,148)"/>
<path d="M0 0 C0.85332916 -0.00570007 1.70665833 -0.01140015 2.58584595 -0.01727295 C4.3931555 -0.02672698 6.20048232 -0.03325853 8.0078125 -0.03710938 C10.7711398 -0.04681207 13.53372244 -0.07782991 16.296875 -0.109375 C18.05207891 -0.11590536 19.80728815 -0.1211557 21.5625 -0.125 C22.38865814 -0.1373468 23.21481628 -0.1496936 24.06600952 -0.16241455 C27.54977143 -0.14890756 29.82001269 -0.11178466 32.93603516 1.54003906 C34.4140625 3.203125 34.4140625 3.203125 34.9140625 6.140625 C34.28488578 9.99433243 33.5572099 10.90842336 30.4140625 13.203125 C27.47427043 13.78535765 24.58634866 13.74001346 21.59765625 13.69921875 C20.74478531 13.70067398 19.89191437 13.70212921 19.01319885 13.70362854 C17.2135984 13.70197117 15.41398354 13.69042799 13.61450195 13.66967773 C10.85762502 13.64068875 8.10266733 13.64907815 5.34570312 13.66210938 C3.59634481 13.65587279 1.84699257 13.64748246 0.09765625 13.63671875 C-1.13991173 13.64112221 -1.13991173 13.64112221 -2.40248108 13.64561462 C-8.15824232 13.55051271 -8.15824232 13.55051271 -10.27622986 11.83021545 C-12.04609426 9.63145797 -12.38095014 8.00461895 -12.5859375 5.203125 C-10.34482537 -1.00303167 -5.80473322 0.02971478 0 0 Z " fill="#1B363F" transform="translate(254.5859375,326.796875)"/>
<path d="M0 0 C0.66 1.32 1.32 2.64 2 4 C0.71034824 5.37562854 -0.62689293 6.70766393 -2 8 C-2.66 8 -3.32 8 -4 8 C-4.2165625 9.794375 -4.2165625 9.794375 -4.4375 11.625 C-4.72699289 14.02365538 -5.07026231 16.37989392 -5.50988674 18.7568531 C-5.99481524 21.96569175 -6.13854607 24.98316721 -6.15821838 28.22628784 C-6.1680072 29.45458817 -6.17779602 30.68288849 -6.18788147 31.94841003 C-6.1937844 33.29617271 -6.19959493 34.64393579 -6.20532227 35.99169922 C-6.21490987 37.42114031 -6.22492046 38.85057863 -6.23532104 40.28001404 C-6.26228062 44.14935218 -6.28333843 48.01870241 -6.30332303 51.88808203 C-6.32523798 55.93599984 -6.35259965 59.98388078 -6.37937927 64.0317688 C-6.42923182 71.6920225 -6.47419815 79.35229675 -6.51740164 87.01259053 C-6.56683769 95.73568356 -6.62173215 104.45873958 -6.67708123 113.18179679 C-6.79078705 131.12116347 -6.89765078 149.06056511 -7 167 C-6.34 167 -5.68 167 -5 167 C-4.96261719 167.68707031 -4.92523438 168.37414062 -4.88671875 169.08203125 C-4.78810547 170.43361328 -4.78810547 170.43361328 -4.6875 171.8125 C-4.62949219 172.70582031 -4.57148437 173.59914063 -4.51171875 174.51953125 C-3.92365828 177.37005336 -3.09094034 178.08330469 -1 180 C-0.3125 183.1875 -0.3125 183.1875 0 186 C0.99 186.33 1.98 186.66 3 187 C3.391875 187.680625 3.78375 188.36125 4.1875 189.0625 C5.78780192 191.18345814 5.78780192 191.18345814 7.96875 191.26171875 C9.98103054 191.25109051 11.99200388 191.13167188 14 191 C13.34 191.99 12.68 192.98 12 194 C12.66 194.33 13.32 194.66 14 195 C14 195.99 14 196.98 14 198 C15.65 198 17.3 198 19 198 C19 198.66 19 199.32 19 200 C22.3 200.33 25.6 200.66 29 201 C29 202.65 29 204.3 29 206 C29.66 206 30.32 206 31 206 C31.33 206.99 31.66 207.98 32 209 C16.49191479 203.42440158 1.31238431 192.98397346 -6 178 C-9.56027437 169.35361939 -9.15324764 160.35971438 -9.16113281 151.16113281 C-9.16576754 149.75924552 -9.17079307 148.35735947 -9.17617798 146.95547485 C-9.18924021 143.16188379 -9.19573471 139.36831037 -9.20018864 135.57470036 C-9.20312913 133.19978922 -9.20723572 130.8248828 -9.21169281 128.44997406 C-9.22535094 121.00530625 -9.23502605 113.56064936 -9.2388947 106.1159699 C-9.24337265 97.54818386 -9.26091538 88.98055758 -9.2898953 80.4128201 C-9.31157037 73.77221902 -9.32160207 67.13166269 -9.32293582 60.49102664 C-9.3239796 56.53305064 -9.32979597 52.57522516 -9.34775543 48.61728668 C-9.36433755 44.89075798 -9.366343 41.16449133 -9.35761642 37.43793869 C-9.35648953 35.43503652 -9.37012785 33.43214263 -9.3843689 31.42929077 C-9.34145582 22.05445092 -8.29813819 13.06009478 -3.375 4.875 C-2.94960937 4.15054688 -2.52421875 3.42609375 -2.0859375 2.6796875 C-1 1 -1 1 0 0 Z " fill="#1D9A9B" transform="translate(104,153)"/>
<path d="M0 0 C8.19565532 2.55222535 14.97141084 6.09451409 22 11 C22.65613281 11.41121094 23.31226563 11.82242187 23.98828125 12.24609375 C26.27770723 13.82519663 27.77976071 15.32336122 28.6484375 17.9921875 C29.51906385 23.58354338 28.54128381 28.61187559 27 34 C25.16108097 32.23180862 23.37213439 30.48673206 21.8203125 28.45703125 C14.48421806 18.97219909 3.70654973 13.08143176 -8 11 C-14.65174679 10.33521108 -21.31959577 10.13320846 -28 10 C-28 9.34 -28 8.68 -28 8 C-23.126739 6.4087311 -19.19209404 5.78807779 -14 6 C-14 6.66 -14 7.32 -14 8 C-8.72 8 -3.44 8 2 8 C1.67 6.68 1.34 5.36 1 4 C0.66666667 2.66666667 0.33333333 1.33333333 0 0 Z " fill="#E9F9F6" transform="translate(376,288)"/>
<path d="M0 0 C0 0.66 0 1.32 0 2 C-2.24711836 3.49987041 -4.48472455 4.86821557 -6.82421875 6.2109375 C-7.52263382 6.62034576 -8.22104889 7.02975403 -8.94062805 7.4515686 C-11.18556258 8.76641436 -13.43606426 10.07132247 -15.6875 11.375 C-17.92037724 12.67267475 -20.15191796 13.97250556 -22.3808136 15.27700806 C-23.76959858 16.08934946 -25.16076211 16.89764227 -26.55461121 17.70126343 C-32.92702976 21.41986485 -37.97691603 24.48807223 -40 32 C-40.43965477 36.38458459 -40.42011795 40.74839875 -40.40405273 45.15209961 C-40.41091599 46.46675705 -40.41777924 47.78141449 -40.42485046 49.13591003 C-40.44273307 52.72689853 -40.44162283 56.31764202 -40.43590808 59.9086616 C-40.4328091 62.91303837 -40.43891653 65.91736856 -40.44494683 68.92173868 C-40.45897434 76.01256278 -40.45744559 83.10326634 -40.44604492 90.1940918 C-40.43456515 97.49519982 -40.4486408 104.79594044 -40.4754414 112.09700006 C-40.49763359 118.37919375 -40.50422789 124.6612724 -40.49836498 130.94350249 C-40.49500261 134.6895815 -40.49736222 138.43542504 -40.51461601 142.18147087 C-40.53302652 146.36071741 -40.51886203 150.53925396 -40.50170898 154.71850586 C-40.51137695 155.95044678 -40.52104492 157.1823877 -40.53100586 158.45166016 C-40.47098775 165.44089693 -39.78192963 170.06499803 -36 176 C-34.05610454 177.96434508 -34.05610454 177.96434508 -31.8125 179.1875 C-31.03648437 179.65800781 -30.26046875 180.12851562 -29.4609375 180.61328125 C-28.24277344 181.29970703 -28.24277344 181.29970703 -27 182 C-26.14664063 182.48855469 -25.29328125 182.97710937 -24.4140625 183.48046875 C-22.28793212 184.67767466 -20.15204294 185.85020874 -18 187 C-18.99 187.99 -18.99 187.99 -20 189 C-30 183 -30 183 -32.66796875 181.35546875 C-34.97222032 179.91041774 -34.97222032 179.91041774 -37.625 179.125 C-40.73457898 177.65204153 -41.53852183 176.06910415 -43 173 C-44.0402261 169.71516435 -44.11506566 166.71812098 -44.0957489 163.28237915 C-44.09159973 162.11598404 -44.08745056 160.94958893 -44.08317566 159.74784851 C-44.07337173 158.47190323 -44.06356781 157.19595795 -44.0534668 155.88134766 C-44.0465946 154.52105406 -44.04014568 153.16075828 -44.03408813 151.80046082 C-44.01618015 148.10822244 -43.9916176 144.41605698 -43.96532798 140.7238698 C-43.9438199 137.63995314 -43.92516952 134.55602158 -43.90639621 131.47208726 C-43.86189536 124.1948944 -43.81160734 116.91775639 -43.75805664 109.640625 C-43.70297621 102.13806172 -43.6589695 94.63548925 -43.62020558 87.13282549 C-43.58643675 80.68763981 -43.54510425 74.24253147 -43.49788028 67.7974304 C-43.46980585 63.94974609 -43.44473827 60.10210068 -43.4272213 56.25435257 C-43.41046775 52.634558 -43.38427692 49.01495157 -43.35091019 45.39527321 C-43.33520247 43.43795991 -43.32915216 41.48057652 -43.32341003 39.52320862 C-43.31080139 38.35117386 -43.29819275 37.1791391 -43.28520203 35.97158813 C-43.27837245 34.95728037 -43.27154287 33.9429726 -43.26450634 32.89792824 C-42.96791077 29.64843084 -42.24891328 27.01203958 -41 24 C-38.5625 22.25 -38.5625 22.25 -36 21 C-35.01 20.34 -34.02 19.68 -33 19 C-33.33 18.34 -33.66 17.68 -34 17 C-32.02 16.67 -30.04 16.34 -28 16 C-27.67 15.01 -27.34 14.02 -27 13 C-26.071875 12.896875 -25.14375 12.79375 -24.1875 12.6875 C-20.74223638 11.94440392 -20.26924635 11.45835021 -18 9 C-16.00854609 7.98308736 -14.00812926 6.98357352 -12 6 C-11.278125 5.443125 -10.55625 4.88625 -9.8125 4.3125 C-8 3 -8 3 -5 3 C-5 2.34 -5 1.68 -5 1 C-2 0 -2 0 0 0 Z " fill="#2D8F92" transform="translate(165,147)"/>
<path d="M0 0 C9.67233791 6.54402748 18.88981601 15.85183822 21.70898438 27.53125 C21.75023437 28.315 21.79148437 29.09875 21.83398438 29.90625 C20.24997829 27.89024225 18.9031218 26.05748812 17.83398438 23.71875 C16.90668578 21.55388188 16.90668578 21.55388188 13.83398438 20.90625 C13.83398438 18.92625 13.83398438 16.94625 13.83398438 14.90625 C12.51398438 14.57625 11.19398438 14.24625 9.83398438 13.90625 C9.83398438 12.58625 9.83398438 11.26625 9.83398438 9.90625 C9.21523438 9.803125 8.59648437 9.7 7.95898438 9.59375 C5.83398438 8.90625 5.83398438 8.90625 3.83398438 5.90625 C2.84398437 5.57625 1.85398437 5.24625 0.83398438 4.90625 C0.29773438 4.308125 -0.23851562 3.71 -0.79101562 3.09375 C-7.1738456 -2.78517234 -14.7673869 -3.77978257 -23.16601562 -4.09375 C-23.16601562 -4.42375 -23.16601562 -4.75375 -23.16601562 -5.09375 C-32.63088649 -5.39906842 -42.13236805 -4.62672787 -50.16601562 0.90625 C-51.15601563 2.39125 -51.15601563 2.39125 -52.16601562 3.90625 C-53.25914062 4.195 -54.35226562 4.48375 -55.47851562 4.78125 C-59.65900947 6.0566549 -61.41252555 7.56868627 -64.16601562 10.90625 C-64.16601562 11.56625 -64.16601562 12.22625 -64.16601562 12.90625 C-64.82601563 12.90625 -65.48601562 12.90625 -66.16601562 12.90625 C-66.16601562 13.56625 -66.16601562 14.22625 -66.16601562 14.90625 C-67.48601562 15.23625 -68.80601562 15.56625 -70.16601562 15.90625 C-69.83601563 18.21625 -69.50601562 20.52625 -69.16601562 22.90625 C-70.48601562 22.57625 -71.80601562 22.24625 -73.16601562 21.90625 C-73.28976562 22.669375 -73.41351563 23.4325 -73.54101562 24.21875 C-74.16601562 26.90625 -74.16601562 26.90625 -76.16601562 29.90625 C-76.52743518 32.23539823 -76.86301087 34.56878478 -77.16601562 36.90625 C-77.66101563 37.40125 -77.66101563 37.40125 -78.16601562 37.90625 C-78.95955226 48.36532302 -77.77655677 56.98813697 -74.16601562 66.90625 C-73.81202903 68.23424939 -73.46922503 69.56574526 -73.16601562 70.90625 C-79.25496118 65.53058093 -80.52854265 56.84192954 -81.10351562 49.09375 C-81.86624964 33.95365887 -77.05650128 20.73048413 -67.41601562 9.03125 C-50.37257558 -8.90055468 -21.01105588 -13.4072803 0 0 Z " fill="#2F9F9F" transform="translate(386.166015625,305.09375)"/>
<path d="M0 0 C0.33 0 0.66 0 1 0 C1.73259394 3.9367198 2.12412521 7.65452996 2.12025452 11.65682983 C2.12162918 12.75891785 2.12300385 13.86100586 2.12442017 14.99649048 C2.12082489 16.19051483 2.11722961 17.38453918 2.11352539 18.61474609 C2.11367142 19.88358643 2.11381744 21.15242676 2.1139679 22.4597168 C2.114254 25.92620738 2.10838743 29.39266313 2.10139394 32.85914564 C2.09512934 36.48663117 2.09455415 40.11411756 2.09336853 43.74160767 C2.09026436 50.60502998 2.08206332 57.46843631 2.07201904 64.3318516 C2.06082949 72.14804296 2.05534029 79.96423509 2.05032361 87.78043246 C2.03987993 103.85363099 2.02229822 119.92681345 2 136 C0.02 134.68 -1.96 133.36 -4 132 C-3.625 130.0625 -3.625 130.0625 -3 128 C-2.01 127.505 -2.01 127.505 -1 127 C-0.67 85.09 -0.34 43.18 0 0 Z " fill="#248D92" transform="translate(403,169)"/>
<path d="M0 0 C0.33 0 0.66 0 1 0 C1 5.61 1 11.22 1 17 C1.66 17.33 2.32 17.66 3 18 C2.42387565 33.00516796 1.78748007 48.0043689 1 63 C1.66 63.33 2.32 63.66 3 64 C2.91621094 64.96421875 2.83242188 65.9284375 2.74609375 66.921875 C2.64425781 68.18515625 2.54242188 69.4484375 2.4375 70.75 C2.33308594 72.00296875 2.22867187 73.2559375 2.12109375 74.546875 C2.0188601 77.46218305 2.1852664 79.27629205 3 82 C3.15652506 86.852277 2.95584634 91.22076831 2 96 C3.2375 96.0825 4.475 96.165 5.75 96.25 C9.72588832 96.70875635 9.72588832 96.70875635 12 99.125 C13.78830003 101.22095142 13.78830003 101.22095142 16.015625 101.0390625 C18.02352883 100.77929872 20.01468008 100.39706398 22 100 C21.42415568 102.38564077 20.77772405 104.66682784 20 107 C16.1617147 105.53408661 12.53415608 103.80376131 8.875 101.9375 C5.91342219 100.42716917 3.15453558 99.05151186 0 98 C0 65.66 0 33.32 0 0 Z " fill="#17999B" transform="translate(377,191)"/>
<path d="M0 0 C3.03599528 3.82799404 4.1258634 6.62470935 4.12025452 11.49882507 C4.12162918 12.42009186 4.12300385 13.34135864 4.12442017 14.2905426 C4.12082489 15.29898727 4.11722961 16.30743195 4.11352539 17.34643555 C4.11367142 18.41001282 4.11381744 19.47359009 4.1139679 20.56939697 C4.11327012 24.09185817 4.10548401 27.61426677 4.09765625 31.13671875 C4.09579159 33.5762377 4.09436791 36.01575703 4.09336853 38.45527649 C4.08954713 44.88161245 4.07972004 51.30792588 4.06866455 57.73425293 C4.05844233 64.28962906 4.05386917 70.84500883 4.04882812 77.40039062 C4.03809746 90.26693671 4.02121728 103.13346716 4 116 C3.67 116 3.34 116 3 116 C1.74453539 111.12644115 1.83350408 106.31621145 1.81054688 101.31958008 C1.80225357 100.34980225 1.79396027 99.38002441 1.78541565 98.38085938 C1.76804226 96.27799403 1.75286809 94.17510963 1.73963928 92.07221413 C1.71855011 88.73792714 1.69152903 85.40373457 1.66296387 82.06950378 C1.60333143 74.98387258 1.55119272 67.89819652 1.5 60.8125 C1.44062441 52.61644434 1.37814094 44.42043469 1.30812073 36.22446251 C1.28170495 32.95091112 1.26079084 29.67735472 1.2401123 26.40376282 C1.22349251 24.37830387 1.20661923 22.35284697 1.18945312 20.32739258 C1.18526871 19.42677597 1.18108429 18.52615936 1.17677307 17.59825134 C1.11914623 11.68372704 0.68294172 5.87477222 0 0 Z " fill="#C6F4F3" transform="translate(372,172)"/>
<path d="M0 0 C13.24646858 -0.92060399 13.24646858 -0.92060399 17.34375 1.23046875 C19.0625 2.8125 19.0625 2.8125 20.57421875 4.47265625 C22.66186151 6.70900781 25.26874318 7.69940151 28 9 C28.495 9.99 28.495 9.99 29 11 C30.64363134 11.72159424 32.31050386 12.39351421 34 13 C34 13.66 34 14.32 34 15 C34.86625 15.1546875 34.86625 15.1546875 35.75 15.3125 C38 16 38 16 39.875 17.4375 C42.4422739 19.3252014 44.96132179 20.10220871 48 21 C48 21.66 48 22.32 48 23 C48.8971875 23.12375 48.8971875 23.12375 49.8125 23.25 C52.5966296 24.20455872 53.43311142 25.57132271 55 28 C50.90406758 26.49895282 47.30371387 24.52048016 43.5546875 22.296875 C42.94416534 21.93660217 42.33364319 21.57632935 41.70462036 21.20513916 C39.75943773 20.05672867 37.81703779 18.90371932 35.875 17.75 C31.49688635 15.1543724 27.11185582 12.57161571 22.71374512 10.01000977 C21.10917856 9.06434528 19.52116764 8.09074659 17.93457031 7.11523438 C13.16716215 4.2870264 9.01482606 1.95074787 3.35400391 2.38232422 C-1.86008656 3.75046868 -6.28441876 6.72490242 -10.8125 9.5625 C-13.85351562 11.40820312 -13.85351562 11.40820312 -16.89453125 13.25390625 C-17.89049316 13.86508301 -18.88645508 14.47625977 -19.91259766 15.10595703 C-23.14774574 17.09063826 -26.38310258 19.07303767 -29.63671875 21.02734375 C-30.61729248 21.621521 -31.59786621 22.21569824 -32.6081543 22.82788086 C-33.39746338 23.21468018 -34.18677246 23.60147949 -35 24 C-35.66 23.67 -36.32 23.34 -37 23 C-36.505 21.515 -36.505 21.515 -36 20 C-34.35 20 -32.7 20 -31 20 C-31 19.34 -31 18.68 -31 18 C-29.02 17.67 -27.04 17.34 -25 17 C-24.896875 16.360625 -24.79375 15.72125 -24.6875 15.0625 C-24.3471875 14.0415625 -24.3471875 14.0415625 -24 13 C-23.01 12.67 -22.02 12.34 -21 12 C-20.67 11.01 -20.34 10.02 -20 9 C-19.31292969 8.90203125 -18.62585938 8.8040625 -17.91796875 8.703125 C-17.01691406 8.55359375 -16.11585938 8.4040625 -15.1875 8.25 C-13.84751953 8.04117188 -13.84751953 8.04117188 -12.48046875 7.828125 C-9.45435134 6.81783068 -8.81299985 5.53819979 -7 3 C-3.3125 2.25 -3.3125 2.25 0 2 C0 1.34 0 0.68 0 0 Z " fill="#2F9C9C" transform="translate(244,99)"/>
<path d="M0 0 C1.29691288 2.59382576 1.105502 4.43123667 1.07987976 7.33630371 C1.06893532 9.03523773 1.06893532 9.03523773 1.05776978 10.76849365 C1.04474823 12.01729309 1.03172668 13.26609253 1.01831055 14.55273438 C1.00373955 16.56484668 0.98917851 18.57695909 0.97499049 20.58907413 C0.95901735 22.75688257 0.94081922 24.9246646 0.92233849 27.092453 C0.88497332 31.61518704 0.86054723 36.13793134 0.83930969 40.6607666 C0.8356723 41.42426092 0.83203492 42.18775523 0.8282873 42.97438574 C0.82088078 44.53603601 0.81350832 46.09768645 0.80616915 47.65933704 C0.75623545 58.18974221 0.69823812 68.71990313 0.60229492 79.25 C0.53769544 86.35064119 0.49465323 93.45105825 0.47613937 100.55197382 C0.46549369 104.30739369 0.44403082 108.06203919 0.39618492 111.81718445 C0.35125832 115.35666277 0.33492454 118.89516434 0.33964729 122.43491364 C0.33489863 124.33919349 0.30033489 126.24332762 0.2645874 128.14727783 C0.31150952 136.11507761 1.77437483 141.82889557 7 148 C9.81052125 150.25413416 12.67899097 151.97282584 15.875 153.625 C16.65875 154.05683594 17.4425 154.48867188 18.25 154.93359375 C20.15427966 155.97862527 22.07547777 156.99273335 24 158 C23.01 158.99 23.01 158.99 22 160 C12 154 12 154 9.33203125 152.35546875 C7.02777968 150.91041774 7.02777968 150.91041774 4.375 150.125 C1.26542102 148.65204153 0.46147817 147.06910415 -1 144 C-2.04581515 140.70378201 -2.11267225 137.69671959 -2.08901978 134.24873352 C-2.08342545 133.07511261 -2.07783112 131.9014917 -2.07206726 130.69230652 C-2.06069229 129.40850601 -2.04931732 128.12470551 -2.03759766 126.80200195 C-2.02908841 125.43359634 -2.02101729 124.06518794 -2.01335144 122.69677734 C-1.99117763 118.98421114 -1.96250439 115.27172129 -1.93239641 111.55921197 C-1.90173162 107.67728816 -1.87611223 103.79533049 -1.84970093 99.91337585 C-1.80453122 93.39754163 -1.75504903 86.88175046 -1.703125 80.3659668 C-1.64308286 72.82353969 -1.59032967 65.28108749 -1.54135668 57.738581 C-1.49408579 50.48982562 -1.44124721 43.24112071 -1.38599777 35.9924221 C-1.36257983 32.90352551 -1.34121473 29.81462462 -1.32149124 26.72570229 C-1.29807955 23.09366789 -1.26984235 19.46170302 -1.23780251 15.8297348 C-1.22155107 13.85355027 -1.21021484 11.87732726 -1.19898987 9.90110779 C-1.18775589 8.73594635 -1.17652191 7.57078491 -1.16494751 6.37031555 C-1.15719614 5.35139882 -1.14944477 4.33248209 -1.14145851 3.28268909 C-1 1 -1 1 0 0 Z " fill="#1F9EA2" transform="translate(123,176)"/>
<path d="M0 0 C0.66 1.32 1.32 2.64 2 4 C0.71034824 5.37562854 -0.62689293 6.70766393 -2 8 C-2.66 8 -3.32 8 -4 8 C-4.185625 9.7634375 -4.185625 9.7634375 -4.375 11.5625 C-4.65036426 14.17846046 -5.10897009 16.30260416 -6.00595093 18.79347229 C-7.68015432 24.62839093 -7.30879498 30.71957655 -7.31884766 36.73803711 C-7.32815634 38.12822039 -7.33832641 39.51839812 -7.34928894 40.90856934 C-7.37649711 44.66628773 -7.39171096 48.42396882 -7.40471697 52.1817596 C-7.42038787 56.1149145 -7.4471654 60.04799369 -7.4727478 63.98109436 C-7.51946566 71.4217274 -7.55624353 78.86237479 -7.58942068 86.30307919 C-7.62769158 94.77712958 -7.67708868 103.25110381 -7.72740483 111.72508991 C-7.83062063 129.15000477 -7.91991458 146.57496379 -8 164 C-8.33 164 -8.66 164 -9 164 C-9.07021417 145.54511656 -9.1230488 127.09026799 -9.15543652 108.63527966 C-9.17087726 100.06548269 -9.19191312 91.49576893 -9.22631836 82.92602539 C-9.25630651 75.45291168 -9.27559528 67.97985825 -9.28226548 60.50668603 C-9.28616186 56.55306392 -9.29526002 52.59961422 -9.31719017 48.64604759 C-9.33770447 44.91716513 -9.34380397 41.18852445 -9.33932304 37.45959091 C-9.34052897 35.45422515 -9.3565923 33.44888511 -9.3732605 31.44358826 C-9.341498 22.06003792 -8.3028124 13.06786601 -3.375 4.875 C-2.94960937 4.15054688 -2.52421875 3.42609375 -2.0859375 2.6796875 C-1 1 -1 1 0 0 Z " fill="#2F9090" transform="translate(104,153)"/>
<path d="M0 0 C1 3 1 3 0.25 4.9453125 C-6.7457129 17.14408687 -14.91129715 26.14689008 -28 32 C-28.99 32 -29.98 32 -31 32 C-31 31.34 -31 30.68 -31 30 C-30.34 30 -29.68 30 -29 30 C-28.87625 29.401875 -28.7525 28.80375 -28.625 28.1875 C-28 26 -28 26 -26 23 C-24.68 23.33 -23.36 23.66 -22 24 C-22 23.01 -22 22.02 -22 21 C-20.6875 19.3125 -20.6875 19.3125 -19 18 C-18.01 18 -17.02 18 -16 18 C-16 17.34 -16 16.68 -16 16 C-15.0409375 15.5978125 -15.0409375 15.5978125 -14.0625 15.1875 C-11.66868314 14.11332248 -11.66868314 14.11332248 -11 11 C-7.535 10.505 -7.535 10.505 -4 10 C-4 8.02 -4 6.04 -4 4 C-3.34 4 -2.68 4 -2 4 C-2 3.01 -2 2.02 -2 1 C-1.34 0.67 -0.68 0.34 0 0 Z " fill="#159A9C" transform="translate(406,368)"/>
<path d="M0 0 C3.28515625 0.91015625 3.28515625 0.91015625 5.28515625 2.53515625 C6.77332644 6.06956046 6.21361564 8.20787627 5.28515625 11.91015625 C3.532644 14.35985898 1.44392353 16.32439908 -0.77734375 18.34765625 C-1.34517578 18.88841797 -1.91300781 19.42917969 -2.49804688 19.98632812 C-3.89034213 21.30842362 -5.30083215 22.61131301 -6.71484375 23.91015625 C-7.6490802 20.89983881 -7.75934286 20.04365357 -6.71484375 16.91015625 C-6.05484375 16.91015625 -5.39484375 16.91015625 -4.71484375 16.91015625 C-4.05484375 15.59015625 -3.39484375 14.27015625 -2.71484375 12.91015625 C-2.05484375 12.91015625 -1.39484375 12.91015625 -0.71484375 12.91015625 C-0.71484375 11.26015625 -0.71484375 9.61015625 -0.71484375 7.91015625 C-1.37484375 7.91015625 -2.03484375 7.91015625 -2.71484375 7.91015625 C-2.71484375 6.92015625 -2.71484375 5.93015625 -2.71484375 4.91015625 C-7.16984375 7.88015625 -7.16984375 7.88015625 -11.71484375 10.91015625 C-12.37484375 10.58015625 -13.03484375 10.25015625 -13.71484375 9.91015625 C-12.22041398 8.19922962 -10.69309272 6.51699231 -9.15234375 4.84765625 C-8.30542969 3.90792969 -7.45851563 2.96820313 -6.5859375 2 C-3.71484375 -0.08984375 -3.71484375 -0.08984375 0 0 Z " fill="#E0F7F4" transform="translate(383.71484375,325.08984375)"/>
<path d="M0 0 C12.19757366 3.74696707 12.19757366 3.74696707 16.25 8.8125 C21.97088618 19.97016233 19.03726769 37.81639389 18.87890625 50.0234375 C18.85455507 52.22302714 18.83071418 54.42262248 18.80735779 56.6222229 C18.74501348 62.36619647 18.67581057 68.11006698 18.60510254 73.85394287 C18.53396595 79.73331066 18.46942178 85.61275059 18.40429688 91.4921875 C18.27592617 102.99487097 18.14029829 114.49745625 18 126 C17.67 126 17.34 126 17 126 C16.99853344 125.44561752 16.99706688 124.89123505 16.99555588 124.3200531 C16.95844079 110.80621452 16.89911321 97.29262891 16.81609726 83.7789917 C16.7766174 77.24376431 16.74443116 70.70867178 16.72900391 64.17333984 C16.71384107 57.86433351 16.6794011 51.55569791 16.63169098 45.24685669 C16.61687353 42.84200262 16.60895878 40.43709562 16.60811615 38.03219604 C16.60574597 34.65908454 16.57865994 31.2869971 16.54589844 27.9140625 C16.5509288 26.92359421 16.55595917 25.93312592 16.56114197 24.91264343 C16.47012641 18.84088771 15.586857 14.02046978 12 9 C9.05945163 6.43879614 9.05945163 6.43879614 5.75 4.5625 C3.8262012 3.38658949 1.90726751 2.20253816 0 1 C0 0.67 0 0.34 0 0 Z " fill="#248A8A" transform="translate(359,162)"/>
<path d="M0 0 C0.60875977 0.32742187 1.21751953 0.65484375 1.84472656 0.9921875 C9.38593418 5.0681253 16.79779049 9.34857303 24 14 C21 15 21 15 18.5 14.25 C16.03609477 13.01804738 14.91565957 11.91565957 13 10 C8.82502695 7.37131327 5.82679537 5.93854354 1 5 C-0.5625 3.5625 -0.5625 3.5625 -2 2 C-5.07983671 0.04943675 -7.37625932 -0.28608479 -11 0 C-11.99 0.495 -11.99 0.495 -13 1 C-15.5 0 -15.5 0 -18 -1 C-18.99 -0.505 -18.99 -0.505 -20 0 C-22.71262116 0.2322646 -25.40773126 0.41936235 -28.125 0.5625 C-28.87910156 0.60568359 -29.63320312 0.64886719 -30.41015625 0.69335938 C-32.27321888 0.7994832 -34.13658524 0.90025001 -36 1 C-26.33346687 -7.17937419 -10.51011812 -5.72725277 0 0 Z " fill="#249999" transform="translate(268,74)"/>
<path d="M0 0 C4.1350163 -0.08107875 8.00219942 -0.14222874 12 1 C14 3 14 3 14 6 C16.04588544 7.89462333 16.04588544 7.89462333 18.6875 9.625 C19.99267578 10.54152344 19.99267578 10.54152344 21.32421875 11.4765625 C23.96566896 12.98045386 26.00854563 13.60113942 29 14 C29 14.99 29 15.98 29 17 C30.98 16.67 32.96 16.34 35 16 C35 16.99 35 17.98 35 19 C35.58136719 19.28101563 36.16273438 19.56203125 36.76171875 19.8515625 C38.8633362 20.92987931 40.8236298 22.10309523 42.8125 23.375 C46.48390085 25.69631723 50.21436207 27.87057866 54 30 C54 30.66 54 31.32 54 32 C50.31202685 30.614926 46.97490321 28.94549948 43.5625 26.98046875 C42.51191406 26.37614014 41.46132812 25.77181152 40.37890625 25.14916992 C39.26386719 24.50181885 38.14882812 23.85446777 37 23.1875 C36.43007324 22.85763092 35.86014648 22.52776184 35.27294922 22.18789673 C27.11485575 17.46347634 19.02166433 12.6409343 11 7.6875 C10.11699219 7.14311279 9.23398438 6.59872559 8.32421875 6.0378418 C2.25785176 2.25785176 2.25785176 2.25785176 0 0 Z " fill="#D2F7F6" transform="translate(176,352)"/>
<path d="M0 0 C0 0.66 0 1.32 0 2 C-0.66 2 -1.32 2 -2 2 C-2 2.66 -2 3.32 -2 4 C-1.01 3.34 -0.02 2.68 1 2 C4.32240324 2.3241369 5.60776303 2.60776303 8 5 C8.40047444 7.32275177 8.7397104 9.65739357 9 12 C9.63808594 12.10957031 10.27617187 12.21914063 10.93359375 12.33203125 C11.75988281 12.49058594 12.58617187 12.64914062 13.4375 12.8125 C14.26121094 12.96332031 15.08492187 13.11414063 15.93359375 13.26953125 C16.61550781 13.51058594 17.29742187 13.75164062 18 14 C18.33 14.99 18.66 15.98 19 17 C19.66 17 20.32 17 21 17 C21 17.66 21 18.32 21 19 C16.42296207 17.63929392 12.60840996 15.77646983 8.5078125 13.33984375 C7.91700897 12.9899086 7.32620544 12.63997345 6.71749878 12.2794342 C5.48059601 11.54508785 4.24535259 10.80793993 3.01171875 10.06811523 C1.11362373 8.93068277 -0.79035836 7.8036337 -2.6953125 6.67773438 C-9.46780555 2.64740493 -9.46780555 2.64740493 -12 1 C-12 0.67 -12 0.34 -12 0 C-7.74433453 -1.16063604 -4.3164922 -0.76173392 0 0 Z " fill="#0F9EA2" transform="translate(216,403)"/>
<path d="M0 0 C6.7171349 3.22351862 13.08247345 6.76642725 19.375 10.75 C25.72889667 14.73287295 32.10022898 18.68212683 38.51953125 22.55859375 C39.15588501 22.94312714 39.79223877 23.32766052 40.44787598 23.72384644 C42.99095195 25.25983431 45.53445332 26.79507837 48.08099365 28.32531738 C49.86147204 29.39542332 51.63986125 30.46892944 53.41796875 31.54296875 C54.44688232 32.16196045 55.4757959 32.78095215 56.53588867 33.41870117 C59 35 59 35 61 37 C58.3125 37.3125 58.3125 37.3125 55 37 C53.29006566 35.3777546 51.62652316 33.70586575 50 32 C47.7096556 30.77337204 45.44365823 29.91038248 43 29 C43 28.34 43 27.68 43 27 C41.906875 26.731875 40.81375 26.46375 39.6875 26.1875 C36.03433759 25.01105787 35.48110634 24.53174117 33 22 C30.96767758 20.80400932 30.96767758 20.80400932 28.8125 19.8125 C28.09707031 19.46832031 27.38164062 19.12414062 26.64453125 18.76953125 C25.83048828 18.38861328 25.83048828 18.38861328 25 18 C25 17.34 25 16.68 25 16 C24.2575 16.04125 23.515 16.0825 22.75 16.125 C19.03459088 15.95611777 17.04344357 14.8943802 14.25 12.5 C13 11 13 11 13 9 C11.02 8.34 9.04 7.68 7 7 C7 6.34 7 5.68 7 5 C5.5459375 4.5978125 5.5459375 4.5978125 4.0625 4.1875 C3.051875 3.795625 2.04125 3.40375 1 3 C0.67 2.01 0.34 1.02 0 0 Z " fill="#31A09F" transform="translate(147,335)"/>
<path d="M0 0 C0 1.98 0 3.96 0 6 C-2.475 5.01 -2.475 5.01 -5 4 C-5 4.66 -5 5.32 -5 6 C-6.32 6.33 -7.64 6.66 -9 7 C-9.33 8.32 -9.66 9.64 -10 11 C-10.99 11 -11.98 11 -13 11 C-13 11.66 -13 12.32 -13 13 C-13.66 13.66 -14.32 14.32 -15 15 C-15.99 15 -16.98 15 -18 15 C-18 14.34 -18 13.68 -18 13 C-20.80063432 14.14194429 -23.47332213 15.32801232 -26 17 C-27.12815365 19.6147267 -27.12815365 19.6147267 -27 22 C-27.67546875 22.06058594 -28.3509375 22.12117188 -29.046875 22.18359375 C-30.38492188 22.30927734 -30.38492188 22.30927734 -31.75 22.4375 C-32.63171875 22.51871094 -33.5134375 22.59992188 -34.421875 22.68359375 C-36.69350452 22.96238465 -38.79851823 23.38790577 -41 24 C-38.76707489 21.56723075 -36.51735835 20.0068752 -33.640625 18.3984375 C-32.77864502 17.91213867 -31.91666504 17.42583984 -31.02856445 16.92480469 C-30.11163818 16.41336914 -29.19471191 15.90193359 -28.25 15.375 C-20.90203729 11.23690682 -13.61138045 7.03652465 -6.44433594 2.59130859 C-2.2115018 0 -2.2115018 0 0 0 Z " fill="#D8F7F5" transform="translate(240,105)"/>
<path d="M0 0 C0.33 0.66 0.66 1.32 1 2 C0.34 2.61875 -0.32 3.2375 -1 3.875 C-3.2284549 5.75637427 -3.2284549 5.75637427 -3 8 C-4.32 8.33 -5.64 8.66 -7 9 C-7 10.32 -7 11.64 -7 13 C-9.8125 15.125 -9.8125 15.125 -13 17 C-13.99 17.66 -14.98 18.32 -16 19 C-16 17.02 -16 15.04 -16 13 C-20.455 14.485 -20.455 14.485 -25 16 C-21.55367576 12.07029522 -17.59401791 9.88708078 -13.0625 7.4375 C-11.65722872 6.66595326 -10.25227343 5.89383066 -8.84765625 5.12109375 C-8.18781738 4.75999512 -7.52797852 4.39889648 -6.84814453 4.02685547 C-4.53138916 2.73963313 -2.25991581 1.38425372 0 0 Z " fill="#189D9C" transform="translate(183,103)"/>
<path d="M0 0 C4.24728761 1.28259869 7.80964517 2.89366163 11.59765625 5.1953125 C12.64123291 5.8255835 13.68480957 6.45585449 14.76000977 7.10522461 C15.84983154 7.77175049 16.93965332 8.43827637 18.0625 9.125 C19.17616943 9.79990479 20.28983887 10.47480957 21.43725586 11.17016602 C24.62894415 13.10680334 27.81551642 15.0515438 31 17 C31.80308594 17.49064941 32.60617187 17.98129883 33.43359375 18.48681641 C36.96355093 20.64538194 40.48696529 22.81395653 44 25 C43.67 25.66 43.34 26.32 43 27 C42.34 26.67 41.68 26.34 41 26 C40.67 26.66 40.34 27.32 40 28 C39.2575 27.236875 38.515 26.47375 37.75 25.6875 C34.35228178 22.36700265 30.99983489 19.90701631 26.8125 17.6875 C23.4669192 15.8826472 20.40189353 13.90017375 17.3125 11.6875 C13.75492371 9.24712749 11.41385746 8.32094501 7 9 C6.67 8.34 6.34 7.68 6 7 C5.01 6.67 4.02 6.34 3 6 C1.3125 2.9375 1.3125 2.9375 0 0 Z " fill="#D6F8F6" transform="translate(297,127)"/>
<path d="M0 0 C3.45101522 4.24740335 6.73279209 8.61105071 10 13 C6 14.33333333 2 15.66666667 -2 17 C-4.64 13.37 -7.28 9.74 -10 6 C-9.01 6 -8.02 6 -7 6 C-7 6.66 -7 7.32 -7 8 C-2.2102679 8.23428313 -2.2102679 8.23428313 2 6 C1.34 5.34 0.68 4.68 0 4 C0 2.68 0 1.36 0 0 Z " fill="#F6F8F7" transform="translate(312,377)"/>
<path d="M0 0 C9.00987319 4.18694107 17.37452108 9.17488394 25.80078125 14.4140625 C29.48498875 16.70221157 33.22057011 18.87313457 37 21 C36.67 21.66 36.34 22.32 36 23 C30.64364145 21.4892322 26.73706125 20.33499105 23 16 C22.34 16 21.68 16 21 16 C20.505 16.495 20.01 16.99 19.5 17.5 C19.005 17.995 18.51 18.49 18 19 C17.34 19 16.68 19 16 19 C16 16.36 16 13.72 16 11 C14.35 11 12.7 11 11 11 C11.33 10.01 11.66 9.02 12 8 C11.319375 7.7525 10.63875 7.505 9.9375 7.25 C6.43134917 5.75802092 3.28379632 3.93164489 0 2 C0 1.34 0 0.68 0 0 Z " fill="#28A29E" transform="translate(208,372)"/>
<path d="M0 0 C0 0.66 0 1.32 0 2 C-2.24711836 3.49987041 -4.48472455 4.86821557 -6.82421875 6.2109375 C-7.52263382 6.62034576 -8.22104889 7.02975403 -8.94062805 7.4515686 C-11.18556258 8.76641436 -13.43606426 10.07132247 -15.6875 11.375 C-17.92037724 12.67267475 -20.15191796 13.97250556 -22.3808136 15.27700806 C-23.76959858 16.08934946 -25.16076211 16.89764227 -26.55461121 17.70126343 C-34.18454226 21.98264787 -34.18454226 21.98264787 -39 29 C-39.66 29 -40.32 29 -41 29 C-41.3125 26.6875 -41.3125 26.6875 -41 24 C-38.6875 22.3125 -38.6875 22.3125 -36 21 C-35.01 20.34 -34.02 19.68 -33 19 C-33.33 18.34 -33.66 17.68 -34 17 C-32.02 16.67 -30.04 16.34 -28 16 C-27.67 15.01 -27.34 14.02 -27 13 C-26.071875 12.896875 -25.14375 12.79375 -24.1875 12.6875 C-20.74223638 11.94440392 -20.26924635 11.45835021 -18 9 C-16.00854609 7.98308736 -14.00812926 6.98357352 -12 6 C-10.9171875 5.1646875 -10.9171875 5.1646875 -9.8125 4.3125 C-8 3 -8 3 -5 3 C-5 2.34 -5 1.68 -5 1 C-2 0 -2 0 0 0 Z " fill="#2B9C9A" transform="translate(165,147)"/>
<path d="M0 0 C3.35433109 0.94933899 6.69246505 1.89748835 10 3 C10 3.66 10 4.32 10 5 C10.69867188 4.90460938 11.39734375 4.80921875 12.1171875 4.7109375 C13.02726563 4.60007812 13.93734375 4.48921875 14.875 4.375 C15.77992188 4.25898438 16.68484375 4.14296875 17.6171875 4.0234375 C18.40351563 4.01570313 19.18984375 4.00796875 20 4 C22.5654594 6.5654594 22.54046087 8.47686668 23 12 C23.78375 12.061875 24.5675 12.12375 25.375 12.1875 C26.24125 12.455625 27.1075 12.72375 28 13 C29.3125 15.5625 29.3125 15.5625 30 18 C24.23712358 15.83649589 19.15409569 12.69503733 13.875 9.5625 C12.87339844 8.97662109 11.87179688 8.39074219 10.83984375 7.78710938 C9.87949219 7.21927734 8.91914063 6.65144531 7.9296875 6.06640625 C7.05554199 5.55021729 6.18139648 5.03402832 5.28076172 4.50219727 C3.22990176 3.15142213 1.64721115 1.80815333 0 0 Z " fill="#E5F9F4" transform="translate(130,324)"/>
<path d="M0 0 C-3.11014243 1.63227333 -6.28221976 2.87578542 -9.5625 4.125 C-16.14010072 6.83010874 -21.43715328 10.62657775 -27 15 C-28.33117157 16.00287588 -29.663703 17.00396381 -31 18 C-30.67 16.68 -30.34 15.36 -30 14 C-29.34 14 -28.68 14 -28 14 C-28 13.01 -28 12.02 -28 11 C-26.68 11 -25.36 11 -24 11 C-24.33 9.35 -24.66 7.7 -25 6 C-23.02 6 -21.04 6 -19 6 C-18.67 5.01 -18.34 4.02 -18 3 C-17.01 3 -16.02 3 -15 3 C-15 2.01 -15 1.02 -15 0 C-9.65370398 -1.0024305 -5.37625234 -0.84888195 0 0 Z " fill="#D1F7F4" transform="translate(348,298)"/>
<path d="M0 0 C0.66 0.33 1.32 0.66 2 1 C1.38125 1.4125 0.7625 1.825 0.125 2.25 C-2.11661515 4.09603601 -2.7900377 5.4187471 -4 8 C-4.474375 8.433125 -4.94875 8.86625 -5.4375 9.3125 C-7.29739648 11.10463122 -7.29739648 11.10463122 -8.3125 14.5625 C-10 18 -10 18 -13.1875 19.4375 C-14.115625 19.623125 -15.04375 19.80875 -16 20 C-16 16.22796208 -15.9251664 13.2689067 -14 10 C-10.55329495 6.98821042 -6.83976818 4.48187097 -3 2 C-2.01 1.34 -1.02 0.68 0 0 Z " fill="#14A4A8" transform="translate(120,140)"/>
<path d="M0 0 C2.64 0.33 5.28 0.66 8 1 C7.67 1.99 7.34 2.98 7 4 C8.65 4.33 10.3 4.66 12 5 C12 5.66 12 6.32 12 7 C12.7425 7.12375 13.485 7.2475 14.25 7.375 C16.80141485 7.95486701 18.7267573 8.73708739 21 10 C21 9.34 21 8.68 21 8 C21.66 8 22.32 8 23 8 C23.12181641 8.90878906 23.12181641 8.90878906 23.24609375 9.8359375 C24.23828629 12.68399276 25.45402584 13.19885011 28.0625 14.625 C30.28515625 15.8515625 30.28515625 15.8515625 32 17 C32 17.66 32 18.32 32 19 C33.65 19.33 35.3 19.66 37 20 C37.495 21.485 37.495 21.485 38 23 C34.48337118 21.67627232 31.31618296 20.12292054 28.0859375 18.20703125 C27.16441895 17.66208008 26.24290039 17.11712891 25.29345703 16.55566406 C24.33036621 15.98041992 23.36727539 15.40517578 22.375 14.8125 C21.39257324 14.22823242 20.41014648 13.64396484 19.39794922 13.04199219 C3.87618637 3.78195194 3.87618637 3.78195194 0 1 C0 0.67 0 0.34 0 0 Z " fill="#1D8F8E" transform="translate(136,362)"/>
<path d="M0 0 C0.66 0.33 1.32 0.66 2 1 C-1.8043117 3.31154878 -5.60884673 5.62272945 -9.41357422 7.93359375 C-10.7033467 8.71702538 -11.9930619 9.50055131 -13.28271484 10.28417969 C-16.37308246 12.16193219 -19.46431125 14.03822418 -22.55761719 15.91113281 C-24.73557729 17.2302515 -26.90690894 18.55843011 -29.07519531 19.89355469 C-29.97077148 20.44172852 -30.86634766 20.98990234 -31.7890625 21.5546875 C-32.5620166 22.03147949 -33.3349707 22.50827148 -34.13134766 22.99951172 C-36 24 -36 24 -38 24 C-38 23.34 -38 22.68 -38 22 C-37.34 22 -36.68 22 -36 22 C-36.33 21.01 -36.66 20.02 -37 19 C-34.5132579 17.5653411 -32.6883811 16.9511186 -29.8125 16.5 C-28.4203125 16.2525 -28.4203125 16.2525 -27 16 C-26.67 15.34 -26.34 14.68 -26 14 C-25.01 14 -24.02 14 -23 14 C-23 13.34 -23 12.68 -23 12 C-22.2265625 11.62488281 -21.453125 11.24976563 -20.65625 10.86328125 C-15.12607869 8.14610549 -9.75627899 5.39288217 -4.62109375 1.98046875 C-3 1 -3 1 0 0 Z " fill="#2C9C9B" transform="translate(205,123)"/>
<path d="M0 0 C3.3 0 6.6 0 10 0 C10 0.66 10 1.32 10 2 C9.34 2 8.68 2 8 2 C8 2.66 8 3.32 8 4 C9.65 4.33 11.3 4.66 13 5 C13.33 5.99 13.66 6.98 14 8 C15.65 8.33 17.3 8.66 19 9 C19.33 8.01 19.66 7.02 20 6 C26.93 5.01 26.93 5.01 34 4 C28.31747906 8.54601675 25.20504772 10.67976888 18.01171875 10.59375 C11.72876755 9.35508777 6.20978018 5.60844302 1 2 C0.67 1.34 0.34 0.68 0 0 Z " fill="#D7F9F7" transform="translate(230,384)"/>
<path d="M0 0 C4.4316038 1.61923985 8.4123612 3.80037673 12.5 6.125 C13.54317383 6.71462524 13.54317383 6.71462524 14.60742188 7.31616211 C21.17205181 11.05102962 27.60551854 14.98155018 34 19 C33.01 19.495 33.01 19.495 32 20 C29.94140625 19.2578125 29.94140625 19.2578125 27.5625 18.125 C25.03678652 16.93496037 22.65468064 15.88489355 20 15 C20 14.01 20 13.02 20 12 C19.31292969 11.80664062 18.62585938 11.61328125 17.91796875 11.4140625 C17.01691406 11.15367188 16.11585938 10.89328125 15.1875 10.625 C14.29417969 10.36976562 13.40085937 10.11453125 12.48046875 9.8515625 C10 9 10 9 7 7 C5.34450469 6.61500109 3.6777567 6.27206865 2 6 C1.855625 5.38125 1.71125 4.7625 1.5625 4.125 C1.06847775 1.96741678 1.06847775 1.96741678 0 0 Z " fill="#239694" transform="translate(327,110)"/>
<path d="M0 0 C2.90197132 2.10196842 5.46236292 4.47524433 8 7 C7.34 7.66 6.68 8.32 6 9 C3.36 7.68 0.72 6.36 -2 5 C-2 3.68 -2 2.36 -2 1 C-2.66 1 -3.32 1 -4 1 C-5.41377341 3.63904371 -6.37240135 6.07120629 -7 9 C-6.34 9.33 -5.68 9.66 -5 10 C-5.99 11.485 -5.99 11.485 -7 13 C-8.5625 11.375 -8.5625 11.375 -10 9 C-9.87177883 5.85858144 -9.4995896 3.78882568 -7.8125 1.125 C-4.88427586 -0.69251843 -3.40755683 -0.64293525 0 0 Z " fill="#DCF7F7" transform="translate(336,344)"/>
<path d="M0 0 C0.495 0.99 0.495 0.99 1 2 C-1.7910387 3.64690003 -4.58293688 5.29233741 -7.375 6.9375 C-8.1690625 7.40607422 -8.963125 7.87464844 -9.78125 8.35742188 C-10.54179687 8.80537109 -11.30234375 9.25332031 -12.0859375 9.71484375 C-12.7876709 10.12855225 -13.4894043 10.54226074 -14.21240234 10.96850586 C-15.45330316 11.68454054 -16.71858188 12.35929094 -18 13 C-18.42152344 13.97839844 -18.42152344 13.97839844 -18.8515625 14.9765625 C-20 17 -20 17 -22.0234375 17.8984375 C-22.79945313 18.05570312 -23.57546875 18.21296875 -24.375 18.375 C-25.14585937 18.54773438 -25.91671875 18.72046875 -26.7109375 18.8984375 C-29.38866299 19.01724443 -30.73622491 18.37480405 -33 17 C-33 16.34 -33 15.68 -33 15 C-31.80375 15 -30.6075 15 -29.375 15 C-22.67755604 14.27224625 -17.30634614 10.52351652 -11.70263672 7.05322266 C-9.19623843 5.50280651 -6.6584407 4.00569029 -4.125 2.5 C-2.74905008 1.66823606 -1.37363776 0.83557689 0 0 Z " fill="#31A5A3" transform="translate(279,379)"/>
<path d="M0 0 C0.33 0.66 0.66 1.32 1 2 C3.01669827 3.13350534 3.01669827 3.13350534 5 4 C-0.33333333 9.33333333 -5.66666667 14.66666667 -11 20 C-10.43026084 16.0118259 -9.16380338 13.37553327 -7 10 C-6.31903578 8.67391178 -5.64669414 7.34313399 -5 6 C-4.01 6 -3.02 6 -2 6 C-2 5.01 -2 4.02 -2 3 C-1.34 3 -0.68 3 0 3 C0 2.01 0 1.02 0 0 Z " fill="#E6F8F7" transform="translate(370,348)"/>
<path d="M0 0 C0.33 0 0.66 0 1 0 C1.02688151 1.64574566 1.04634123 3.29161413 1.0625 4.9375 C1.07410156 5.85402344 1.08570313 6.77054687 1.09765625 7.71484375 C1 10 1 10 0 11 C-0.79353663 21.45907302 0.38945885 30.08188697 4 40 C4.35398659 41.32799939 4.6967906 42.65949526 5 44 C-1.09250648 38.62118714 -2.35494288 29.93783999 -2.9375 22.1875 C-3.39170088 14.44193532 -2.06931994 7.48228679 0 0 Z " fill="#35A5A1" transform="translate(308,332)"/>
<path d="M0 0 C8.04536371 3.77750712 15.49595345 8.25998314 23 13 C20.11604263 14.44197868 17.17569521 14.58833581 14 15 C13.938125 14.21625 13.87625 13.4325 13.8125 12.625 C13.544375 11.75875 13.27625 10.8925 13 10 C10.7193293 8.78702351 10.7193293 8.78702351 8 8 C5.1875 6.5 5.1875 6.5 3 5 C3 4.34 3 3.68 3 3 C1.68 2.34 0.36 1.68 -1 1 C-0.67 0.67 -0.34 0.34 0 0 Z " fill="#D6F8F6" transform="translate(274,113)"/>
<path d="M0 0 C2.45193779 3.67790669 2.71511798 6.72592275 2 11 C0 14 0 14 -2 16 C-2.66 15.67 -3.32 15.34 -4 15 C-2.9790625 13.9790625 -2.9790625 13.9790625 -1.9375 12.9375 C0.34837399 10.07329173 0.34837399 10.07329173 -0.0625 6.3125 C-0.68624135 2.74005552 -0.68624135 2.74005552 -4 1 C-6.37879558 0.373552 -6.37879558 0.373552 -9 1 C-11.1491769 2.78663019 -12.93903847 4.46395503 -14.8125 6.5 C-15.31458984 7.02464844 -15.81667969 7.54929687 -16.33398438 8.08984375 C-17.56762133 9.38222532 -18.78541625 10.68969599 -20 12 C-20 7.71464033 -17.7483722 6.15057301 -15 3 C-14.67 2.34 -14.34 1.68 -14 1 C-13.34 1 -12.68 1 -12 1 C-12 0.34 -12 -0.32 -12 -1 C-7.33976609 -1.91377136 -4.21078128 -2.40616073 0 0 Z " fill="#299A98" transform="translate(389,325)"/>
<path d="M0 0 C0.721875 0.185625 1.44375 0.37125 2.1875 0.5625 C5.12826973 1.01995307 7.14103058 0.73516357 10 0 C10.33 1.98 10.66 3.96 11 6 C11.95712891 6.16435547 11.95712891 6.16435547 12.93359375 6.33203125 C13.75988281 6.49058594 14.58617187 6.64914062 15.4375 6.8125 C16.26121094 6.96332031 17.08492187 7.11414063 17.93359375 7.26953125 C18.61550781 7.51058594 19.29742187 7.75164062 20 8 C20.33 8.99 20.66 9.98 21 11 C21.66 11 22.32 11 23 11 C23 11.66 23 12.32 23 13 C17.50434318 11.46367421 12.97905386 8.84581871 8.125 5.9375 C7.34125 5.47794922 6.5575 5.01839844 5.75 4.54492188 C1.50437107 2.02639112 1.50437107 2.02639112 0 1 C0 0.67 0 0.34 0 0 Z " fill="#1B8E8F" transform="translate(214,409)"/>
<path d="M0 0 C0.51949219 1.08539063 1.03898437 2.17078125 1.57421875 3.2890625 C2.27820848 4.73458808 2.98266025 6.1798887 3.6875 7.625 C4.02716797 8.33785156 4.36683594 9.05070312 4.71679688 9.78515625 C6.44757169 13.31140775 8.17253703 16.37344039 10.76953125 19.3359375 C13 22 13 22 13 25 C10.69 26.32 8.38 27.64 6 29 C6 28.01 6 27.02 6 26 C6.99 25.67 7.98 25.34 9 25 C8.67 22.69 8.34 20.38 8 18 C7.01 17.67 6.02 17.34 5 17 C3.8125 14.9375 3.8125 14.9375 3 13 C2.01 13.495 2.01 13.495 1 14 C0.93941406 13.37351562 0.87882812 12.74703125 0.81640625 12.1015625 C0.73261719 11.28429687 0.64882813 10.46703125 0.5625 9.625 C0.48128906 8.81289063 0.40007812 8.00078125 0.31640625 7.1640625 C0.10909886 4.95727195 0.10909886 4.95727195 -1 3 C-1.99 2.34 -2.98 1.68 -4 1 C-2 0 -2 0 0 0 Z " fill="#2BA39E" transform="translate(297,370)"/>
<path d="M0 0 C7.37303523 3.47060444 14.2004184 7.51434446 21 12 C19 13 19 13 17.1953125 12.44140625 C16.51210938 12.15136719 15.82890625 11.86132812 15.125 11.5625 C11.98427722 10.23097684 10.59943974 10 7 10 C6.01 9.67 5.02 9.34 4 9 C4 7.02 4 5.04 4 3 C2.68 2.67 1.36 2.34 0 2 C0 1.34 0 0.68 0 0 Z " fill="#21989A" transform="translate(306,97)"/>
<path d="M0 0 C3.87510412 1.67270681 7.40289496 3.80262682 11 6 C12.7248778 6.96603142 14.45369597 7.92508225 16.1875 8.875 C17.45858156 9.5828878 18.72951673 10.29103897 20 11 C20 11.33 20 11.66 20 12 C12.76450512 11.31740614 12.76450512 11.31740614 10 8 C9.01 7.67 8.02 7.34 7 7 C7 6.34 7 5.68 7 5 C-0.04984516 2.34505831 -5.57106587 1.68808184 -13 3 C-8.69808319 -0.60899061 -5.46776466 -1.03511881 0 0 Z " fill="#CCF7F5" transform="translate(254,101)"/>
<path d="M0 0 C0 0.66 0 1.32 0 2 C0.63808594 2.04898437 1.27617187 2.09796875 1.93359375 2.1484375 C2.75988281 2.22320312 3.58617187 2.29796875 4.4375 2.375 C5.26121094 2.44460938 6.08492188 2.51421875 6.93359375 2.5859375 C7.61550781 2.72257812 8.29742187 2.85921875 9 3 C9.33 3.66 9.66 4.32 10 5 C2.08 4.67 -5.84 4.34 -14 4 C-14 3.34 -14 2.68 -14 2 C-9.126739 0.4087311 -5.19209404 -0.21192221 0 0 Z " fill="#D0F5F3" transform="translate(362,294)"/>
<path d="M0 0 C0 0.66 0 1.32 0 2 C-0.66 2 -1.32 2 -2 2 C-2 2.99 -2 3.98 -2 5 C-2.886875 5.433125 -3.77375 5.86625 -4.6875 6.3125 C-7.9343801 7.88154452 -7.9343801 7.88154452 -10.5 9.6875 C-13.51734004 11.27160352 -15.63949913 11.23445355 -19 11 C-15.44608026 8.03073619 -11.81482005 5.57681464 -7.8125 3.25 C-6.76707031 2.63640625 -5.72164062 2.0228125 -4.64453125 1.390625 C-2 0 -2 0 0 0 Z " fill="#24989B" transform="translate(232,75)"/>
<path d="M0 0 C4.99854788 0.53176041 9.28491129 1.68550815 13.984375 3.4765625 C16.18085645 4.24223095 16.18085645 4.24223095 19 3 C19.99 3 20.98 3 22 3 C21.42415568 5.38564077 20.77772405 7.66682784 20 10 C16.1779769 8.53324575 12.53419861 6.83418477 8.875 5 C7.84117187 4.484375 6.80734375 3.96875 5.7421875 3.4375 C3 2 3 2 0 0 Z " fill="#20A09E" transform="translate(377,288)"/>
<path d="M0 0 C0.66 0.99 1.32 1.98 2 3 C1.3125 4.9375 1.3125 4.9375 0 7 C-2.625 7.75 -2.625 7.75 -5 8 C-6.32 6.35 -7.64 4.7 -9 3 C-6 1 -6 1 -2.8125 1.375 C-1.884375 1.58125 -0.95625 1.7875 0 2 C0 1.34 0 0.68 0 0 Z " fill="#F6F9F7" transform="translate(401,303)"/>
<path d="M0 0 C0.66 0.33 1.32 0.66 2 1 C0.73608512 2.00873016 -0.53640883 3.00671822 -1.8125 4 C-2.87404297 4.8353125 -2.87404297 4.8353125 -3.95703125 5.6875 C-6 7 -6 7 -9 7 C-9 7.66 -9 8.32 -9 9 C-18.41002278 14.37129841 -18.41002278 14.37129841 -23 16 C-18.82728441 11.37869632 -14.12332718 8.32929796 -8.8125 5.125 C-7.58370117 4.35929688 -7.58370117 4.35929688 -6.33007812 3.578125 C-5.54697266 3.10117188 -4.76386719 2.62421875 -3.95703125 2.1328125 C-2.88932495 1.48143311 -2.88932495 1.48143311 -1.80004883 0.81689453 C-1.20603271 0.54731934 -0.6120166 0.27774414 0 0 Z " fill="#C9F8F5" transform="translate(150,157)"/>
<path d="M0 0 C5.43683334 1.49212776 9.69063815 4.1009183 14.375 7.125 C15.47908203 7.82689453 15.47908203 7.82689453 16.60546875 8.54296875 C18.40730078 9.68958913 20.20416431 10.84401076 22 12 C21.67 12.66 21.34 13.32 21 14 C18.525 13.505 18.525 13.505 16 13 C16 12.01 16 11.02 16 10 C15.29875 9.731875 14.5975 9.46375 13.875 9.1875 C10.8350176 7.9318551 7.9272226 6.49764877 5 5 C5 4.34 5 3.68 5 3 C3.35 2.67 1.7 2.34 0 2 C0 1.34 0 0.68 0 0 Z " fill="#259593" transform="translate(361,130)"/>
<path d="M0 0 C1.66611905 -0.042721 3.33382885 -0.04063832 5 0 C5.33 0.33 5.66 0.66 6 1 C7.66617115 1.04063832 9.33388095 1.042721 11 1 C11.33 1.66 11.66 2.32 12 3 C13.65 3 15.3 3 17 3 C17.66 4.65 18.32 6.3 19 8 C12.01573108 6.48616831 5.99835839 4.95346348 0 1 C0 0.67 0 0.34 0 0 Z " fill="#1C9D9E" transform="translate(299,127)"/>
<path d="M0 0 C4.66311976 1.3513245 8.33319014 3.25792976 12.375 5.9375 C13.43460937 6.62714844 14.49421875 7.31679687 15.5859375 8.02734375 C16.38257813 8.67832031 17.17921875 9.32929688 18 10 C18 10.99 18 11.98 18 13 C13.32488326 10.22414943 13.32488326 10.22414943 11.09765625 8.6875 C6.91637059 5.86252389 4.23472094 4.34565988 -1 5 C-0.67 3.35 -0.34 1.7 0 0 Z " fill="#D4F8F7" transform="translate(353,160)"/>
<path d="M0 0 C2.31 0.66 4.62 1.32 7 2 C7 2.66 7 3.32 7 4 C7.66 4 8.32 4 9 4 C9 4.99 9 5.98 9 7 C11.64 7.66 14.28 8.32 17 9 C17 8.34 17 7.68 17 7 C17.66 7.33 18.32 7.66 19 8 C18.67 9.32 18.34 10.64 18 12 C11.6049485 10.47263819 7.387215 9.16142942 3 4 C1.68824014 2.97186389 0.3630107 1.95915568 -1 1 C-0.67 0.67 -0.34 0.34 0 0 Z " fill="#149A9B" transform="translate(349,153)"/>
<path d="M0 0 C0.86625 0.825 1.7325 1.65 2.625 2.5 C8.12675595 7.26135401 14.64541197 10.5274512 21 14 C20.34 14.66 19.68 15.32 19 16 C9 10 9 10 6.33984375 8.3671875 C3.99707239 6.91489319 3.99707239 6.91489319 1.25 5.9375 C-1 5 -1 5 -2 3 C-1.34 2.67 -0.68 2.34 0 2 C0 1.34 0 0.68 0 0 Z " fill="#2EA1A0" transform="translate(126,320)"/>
<path d="M0 0 C0.66 0 1.32 0 2 0 C2 0.66 2 1.32 2 2 C1.34 2 0.68 2 0 2 C-0.07476562 2.58523438 -0.14953125 3.17046875 -0.2265625 3.7734375 C-1.2684313 6.77275676 -2.83626426 7.75997407 -5.375 9.625 C-6.56222656 10.51058594 -6.56222656 10.51058594 -7.7734375 11.4140625 C-9.49433661 12.63982573 -11.24203126 13.82802084 -13 15 C-12.67 13.68 -12.34 12.36 -12 11 C-11.34 11 -10.68 11 -10 11 C-10 10.01 -10 9.02 -10 8 C-8.68 8 -7.36 8 -6 8 C-6.33 6.35 -6.66 4.7 -7 3 C-5.02 3 -3.04 3 -1 3 C-0.67 2.01 -0.34 1.02 0 0 Z " fill="#DFFAF8" transform="translate(330,301)"/>
<path d="M0 0 C1.60597325 0.45196245 3.20972508 0.91182327 4.8125 1.375 C6.15248047 1.75785156 6.15248047 1.75785156 7.51953125 2.1484375 C10 3 10 3 13 5 C13 5.66 13 6.32 13 7 C13.5775 7.103125 14.155 7.20625 14.75 7.3125 C17.32049158 8.09792798 18.93657284 9.30504197 21 11 C20.67 11.66 20.34 12.32 20 13 C16.66314294 11.02672828 13.33112968 9.04542247 10 7.0625 C9.04609375 6.49853516 8.0921875 5.93457031 7.109375 5.35351562 C5.75585938 4.54624023 5.75585938 4.54624023 4.375 3.72265625 C3.53710938 3.22515869 2.69921875 2.72766113 1.8359375 2.21508789 C1.23007812 1.81410889 0.62421875 1.41312988 0 1 C0 0.67 0 0.34 0 0 Z " fill="#35969A" transform="translate(335,148)"/>
<path d="M0 0 C0.99 0.66 1.98 1.32 3 2 C1.60919892 3.58775549 0.21211596 5.17000939 -1.1875 6.75 C-1.96480469 7.63171875 -2.74210937 8.5134375 -3.54296875 9.421875 C-5.88455246 11.87886268 -8.30158265 13.94862766 -11 16 C-11 13 -11 13 -9 11 C-8.34 10.67 -7.68 10.34 -7 10 C-6.29848848 8.6846659 -5.63474075 7.34882408 -5 6 C-4.34 5.01 -3.68 4.02 -3 3 C-2.01 3 -1.02 3 0 3 C0 2.01 0 1.02 0 0 Z " fill="#20A09D" transform="translate(365,336)"/>
<path d="M0 0 C-1.11179163 3.33537489 -2.47411298 4.63707344 -5 7 C-4.34 7.33 -3.68 7.66 -3 8 C-7.62 8.66 -12.24 9.32 -17 10 C-13.5764298 7.26114384 -10.52020025 4.97125461 -6.8125 2.75 C-5.52279297 1.96882812 -5.52279297 1.96882812 -4.20703125 1.171875 C-2 0 -2 0 0 0 Z " fill="#D6F5F4" transform="translate(192,133)"/>
<path d="M0 0 C0.66 0.66 1.32 1.32 2 2 C-2.455 4.97 -2.455 4.97 -7 8 C-7.66 7.67 -8.32 7.34 -9 7 C-7.68 5.68 -6.36 4.36 -5 3 C-6.32 3 -7.64 3 -9 3 C-9 2.34 -9 1.68 -9 1 C-5.66429909 -1.10025613 -3.74952434 -1.18406032 0 0 Z " fill="#1BB9B9" transform="translate(283,409)"/>
<path d="M0 0 C0 1.65 0 3.3 0 5 C0.804375 5.268125 1.60875 5.53625 2.4375 5.8125 C3.283125 6.204375 4.12875 6.59625 5 7 C5.33 7.99 5.66 8.98 6 10 C2.32305352 8.62859834 -0.95318589 6.96304199 -4.3125 4.9375 C-5.19550781 4.41027344 -6.07851562 3.88304687 -6.98828125 3.33984375 C-7.65214844 2.89769531 -8.31601563 2.45554687 -9 2 C-9 1.67 -9 1.34 -9 1 C-5.846632 0.29925156 -3.27275026 0 0 0 Z " fill="#199593" transform="translate(183,384)"/>
<path d="M0 0 C12.34394904 3.79193206 12.34394904 3.79193206 15.875 8.5 C17 11 17 11 16 14 C15.20335937 12.89398438 15.20335937 12.89398438 14.390625 11.765625 C11.76333872 8.72621538 9.13719389 6.89358647 5.75 4.75 C3.81948735 3.52149195 1.8984147 2.27754951 0 1 C0 0.67 0 0.34 0 0 Z " fill="#2B9695" transform="translate(359,162)"/>
<path d="M0 0 C0 3 0 3 -1 6 C-2.33333333 6.66666667 -3.66666667 7.33333333 -5 8 C-5.33 8.99 -5.66 9.98 -6 11 C-7.7421875 12.82421875 -7.7421875 12.82421875 -9.875 14.6875 C-10.57367188 15.31011719 -11.27234375 15.93273437 -11.9921875 16.57421875 C-14 18 -14 18 -17 18 C-16.25556641 17.27296875 -16.25556641 17.27296875 -15.49609375 16.53125 C-11.2942587 12.38522681 -7.2856068 8.14738282 -3.4453125 3.6640625 C-2.34597202 2.39833536 -1.1854566 1.1854566 0 0 Z " fill="#279A97" transform="translate(383,342)"/>
<path d="M0 0 C0 0.66 0 1.32 0 2 C-0.99 2 -1.98 2 -3 2 C-3.04125 2.598125 -3.0825 3.19625 -3.125 3.8125 C-4 6 -4 6 -6.75 7.75 C-9.82966204 8.9344854 -11.75489427 9.28633286 -15 9 C-12.59888822 6.36115438 -9.99444972 4.63586471 -6.9375 2.8125 C-5.62072266 2.01779297 -5.62072266 2.01779297 -4.27734375 1.20703125 C-2 0 -2 0 0 0 Z " fill="#D0F6F3" transform="translate(167,148)"/>
<path d="M0 0 C0.66 0.33 1.32 0.66 2 1 C1.071875 1.61875 1.071875 1.61875 0.125 2.25 C-2.06768281 4.05573879 -2.92788417 5.4090534 -4 8 C-5.32 8 -6.64 8 -8 8 C-8 8.66 -8 9.32 -8 10 C-9.98 10.66 -11.96 11.32 -14 12 C-12.75030384 8.25091151 -11.36230195 7.60977652 -8.125 5.4375 C-7.24070312 4.83808594 -6.35640625 4.23867187 -5.4453125 3.62109375 C-4.63835937 3.08613281 -3.83140625 2.55117187 -3 2 C-2.01 1.34 -1.02 0.68 0 0 Z " fill="#229494" transform="translate(120,140)"/>
<path d="M0 0 C3.25 0.9375 3.25 0.9375 4.6875 3 C4.873125 3.639375 5.05875 4.27875 5.25 4.9375 C4.26 4.2775 3.27 3.6175 2.25 2.9375 C-1.45711368 2.86620935 -3.8409485 3.19966791 -6.76171875 5.5703125 C-8.49579907 7.30791022 -10.15069312 9.0756929 -11.75 10.9375 C-12.41 10.6075 -13.07 10.2775 -13.75 9.9375 C-12.25557023 8.22657337 -10.72824897 6.54433606 -9.1875 4.875 C-8.34058594 3.93527344 -7.49367188 2.99554688 -6.62109375 2.02734375 C-3.75 -0.0625 -3.75 -0.0625 0 0 Z " fill="#BFF3F3" transform="translate(383.75,325.0625)"/>
<path d="M0 0 C0.33 0 0.66 0 1 0 C1.33 4.95 1.66 9.9 2 15 C0.02 13.68 -1.96 12.36 -4 11 C-3.625 9.0625 -3.625 9.0625 -3 7 C-2.34 6.67 -1.68 6.34 -1 6 C-0.34227572 2.97065509 -0.34227572 2.97065509 0 0 Z " fill="#2E9D9A" transform="translate(403,290)"/>
<path d="M0 0 C3.45101522 4.24740335 6.73279209 8.61105071 10 13 C8.02 13.33 6.04 13.66 4 14 C3.896875 12.906875 3.79375 11.81375 3.6875 10.6875 C2.97920402 6.88845793 2.64635355 6.41623585 0 4 C0 2.68 0 1.36 0 0 Z " fill="#D4F8F9" transform="translate(312,377)"/>
<path d="M0 0 C0.99 0 1.98 0 3 0 C3.07347656 1.04800781 3.07347656 1.04800781 3.1484375 2.1171875 C3.22320312 3.02726562 3.29796875 3.93734375 3.375 4.875 C3.44460937 5.77992188 3.51421875 6.68484375 3.5859375 7.6171875 C3.79568132 10.17941903 3.79568132 10.17941903 6 12 C6.125 14.625 6.125 14.625 6 17 C2.28898979 12.75884548 0.16288878 7.60622044 -0.1875 2 C-0.125625 1.34 -0.06375 0.68 0 0 Z " fill="#24908E" transform="translate(96,320)"/>
<path d="M0 0 C3.63 2.31 7.26 4.62 11 7 C10.67 7.66 10.34 8.32 10 9 C8.02 9 6.04 9 4 9 C4 8.01 4 7.02 4 6 C3.34 5.67 2.68 5.34 2 5 C0.96854629 3.69084721 -0.03542166 2.35917857 -1 1 C-0.67 0.67 -0.34 0.34 0 0 Z " fill="#293E46" transform="translate(286,213)"/>
<path d="M0 0 C0.33 0.66 0.66 1.32 1 2 C2.64363134 2.72159424 4.31050386 3.39351421 6 4 C6 4.66 6 5.32 6 6 C6.66 6.33 7.32 6.66 8 7 C5 8 5 8 2.73828125 7.00390625 C1.93777344 6.52824219 1.13726562 6.05257813 0.3125 5.5625 C-0.49574219 5.08941406 -1.30398438 4.61632812 -2.13671875 4.12890625 C-2.75160156 3.75636719 -3.36648438 3.38382812 -4 3 C-2.68 2.67 -1.36 2.34 0 2 C0 1.34 0 0.68 0 0 Z " fill="#1BAEAC" transform="translate(331,392)"/>
<path d="M0 0 C0.33 2.31 0.66 4.62 1 7 C-2.99500618 5.6302836 -5.80009492 3.74277578 -9 1 C-5.846632 0.29925156 -3.27275026 0 0 0 Z " fill="#1B9196" transform="translate(213,402)"/>
<path d="M0 0 C2.475 0.99 2.475 0.99 5 2 C5 2.66 5 3.32 5 4 C5.78375 4.12375 6.5675 4.2475 7.375 4.375 C10 5 10 5 12 7 C9.625 7.625 9.625 7.625 7 8 C6.34 7.34 5.68 6.68 5 6 C2.93125966 5.3574765 2.93125966 5.3574765 1 5 C0.67 3.35 0.34 1.7 0 0 Z " fill="#18A2A6" transform="translate(185,360)"/>
<path d="M0 0 C0.66 0.66 1.32 1.32 2 2 C1.67 2.99 1.34 3.98 1 5 C0.01 4.67 -0.98 4.34 -2 4 C-2.103125 4.763125 -2.20625 5.52625 -2.3125 6.3125 C-3.04364039 9.17059424 -3.76951913 10.15742885 -6 12 C-5.73781251 7.5428126 -5.42288711 5.48477302 -2.4375 2.0625 C-1.633125 1.381875 -0.82875 0.70125 0 0 Z " fill="#1EA09E" transform="translate(315,323)"/>
<path d="M0 0 C3.0831351 1.19899698 6.06279492 2.47700477 9 4 C9 4.99 9 5.98 9 7 C10.32 7.66 11.64 8.32 13 9 C9.1868569 8.32709239 5.56297106 7.53855569 2 6 C1.1875 4 1.1875 4 1 2 C0.67 1.34 0.34 0.68 0 0 Z " fill="#1B9E99" transform="translate(327,110)"/>
<path d="M0 0 C0.66 0.33 1.32 0.66 2 1 C1.2884375 1.928125 1.2884375 1.928125 0.5625 2.875 C-1.02417441 4.90705546 -1.02417441 4.90705546 -2 7 C-2.98731742 8.34275169 -3.98594743 9.67732273 -5 11 C-5.99 10.67 -6.98 10.34 -8 10 C-7.34 10 -6.68 10 -6 10 C-6.66 8.68 -7.32 7.36 -8 6 C-5.36 4.02 -2.72 2.04 0 0 Z " fill="#283E45" transform="translate(217,210)"/>
<path d="M0 0 C0.99 0.33 1.98 0.66 3 1 C0.36 3.97 -2.28 6.94 -5 10 C-6.15941038 6.52176885 -5.70820884 4.54104422 -5 1 C-3.35 1.33 -1.7 1.66 0 2 C0 1.34 0 0.68 0 0 Z " fill="#ECF0EF" transform="translate(225,169)"/>
<path d="M0 0 C-0.33 1.32 -0.66 2.64 -1 4 C-1.66 4 -2.32 4 -3 4 C-3.33 5.32 -3.66 6.64 -4 8 C-4.99 8 -5.98 8 -7 8 C-7 7.34 -7 6.68 -7 6 C-7.66 5.67 -8.32 5.34 -9 5 C-7.87926138 4.16094435 -6.75325453 3.32892169 -5.625 2.5 C-4.99851562 2.0359375 -4.37203125 1.571875 -3.7265625 1.09375 C-2 0 -2 0 0 0 Z " fill="#EEFCF2" transform="translate(381,330)"/>
<path d="M0 0 C0.99 0.99 1.98 1.98 3 3 C0.69 4.65 -1.62 6.3 -4 8 C-4.66 7.67 -5.32 7.34 -6 7 C-5.67 5.35 -5.34 3.7 -5 2 C-4.360625 1.855625 -3.72125 1.71125 -3.0625 1.5625 C-1.02454854 1.18992819 -1.02454854 1.18992819 0 0 Z " fill="#1EB4B5" transform="translate(291,402)"/>
<path d="M0 0 C0.66 0.33 1.32 0.66 2 1 C0.02 1.99 0.02 1.99 -2 3 C-1.67 3.99 -1.34 4.98 -1 6 C-2.32 6.33 -3.64 6.66 -5 7 C-5.33 9.97 -5.66 12.94 -6 16 C-6.33 16 -6.66 16 -7 16 C-7.41382683 12.24928385 -7.62399396 8.73347646 -7 5 C-4.86362155 2.47275532 -2.99948478 1.55330462 0 0 Z " fill="#D2DCDE" transform="translate(191,248)"/>
<path d="M0 0 C0 0.66 0 1.32 0 2 C-0.94875 2.45375 -1.8975 2.9075 -2.875 3.375 C-6.00313679 4.80238254 -6.00313679 4.80238254 -8 7 C-10.94793662 8.31881375 -13.84915051 9.29981122 -17 10 C-14.07647233 6.81321628 -11.18387159 4.78276705 -7.375 2.75 C-6.41335937 2.22921875 -5.45171875 1.7084375 -4.4609375 1.171875 C-2 0 -2 0 0 0 Z " fill="#309691" transform="translate(149,124)"/>
<path d="M0 0 C0 1.32 0 2.64 0 4 C-0.804375 4.12375 -1.60875 4.2475 -2.4375 4.375 C-3.7059375 4.684375 -3.7059375 4.684375 -5 5 C-5.33 5.66 -5.66 6.32 -6 7 C-8.5625 7.625 -8.5625 7.625 -11 8 C-9.83630874 4.50892621 -9.11026462 4.14777237 -6.0625 2.3125 C-5.35222656 1.87550781 -4.64195312 1.43851562 -3.91015625 0.98828125 C-2 0 -2 0 0 0 Z " fill="#279698" transform="translate(196,96)"/>
<path d="M0 0 C5.35870849 0.26793542 8.23568723 2.37605792 12.265625 5.625 C13.96209774 7.06655505 13.96209774 7.06655505 16 8 C15.67 8.66 15.34 9.32 15 10 C12.49732313 8.52520827 9.99783579 7.04544936 7.5 5.5625 C6.78457031 5.14162109 6.06914062 4.72074219 5.33203125 4.28710938 C3.53787459 3.21915898 1.76678262 2.11265239 0 1 C0 0.67 0 0.34 0 0 Z " fill="#CDF8F8" transform="translate(160,342)"/>
<path d="M0 0 C0.99 0.33 1.98 0.66 3 1 C0.54945142 4.67582287 -0.9054322 4.6897383 -5 6 C-5.721875 6.556875 -6.44375 7.11375 -7.1875 7.6875 C-7.785625 8.120625 -8.38375 8.55375 -9 9 C-9.99 8.67 -10.98 8.34 -12 8 C-10.07053972 6.63292504 -8.13289523 5.28155046 -6.1875 3.9375 C-5.10855469 3.18339844 -4.02960938 2.42929688 -2.91796875 1.65234375 C-1.95503906 1.10707031 -0.99210938 0.56179687 0 0 Z " fill="#DFE7EB" transform="translate(226,224)"/>
<path d="M0 0 C2.97 0 5.94 0 9 0 C6.11861791 2.24107496 3.25320657 4.33168894 0 6 C-0.99 5.67 -1.98 5.34 -3 5 C-2.01 4.67 -1.02 4.34 0 4 C0 2.68 0 1.36 0 0 Z " fill="#DEF6F6" transform="translate(288,369)"/>
<path d="M0 0 C4.45845711 0.50953796 6.6230172 2.12956462 10 5 C11.6502694 6.0268343 13.31243867 7.03567924 15 8 C14.67 8.66 14.34 9.32 14 10 C11.85032779 8.7143824 9.70533651 7.42192095 7.5625 6.125 C6.95083984 5.76019531 6.33917969 5.39539063 5.70898438 5.01953125 C1.11328125 2.2265625 1.11328125 2.2265625 0 0 Z " fill="#C7F5F3" transform="translate(187,358)"/>
<path d="M0 0 C2.0625 0.4375 2.0625 0.4375 4 1 C3.3125 3.4375 3.3125 3.4375 2 6 C-0.625 6.8125 -0.625 6.8125 -3 7 C-1.125 1.125 -1.125 1.125 0 0 Z " fill="#2A4048" transform="translate(220,178)"/>
<path d="M0 0 C1.32 0 2.64 0 4 0 C4 0.66 4 1.32 4 2 C6.31 2.66 8.62 3.32 11 4 C11.33 5.32 11.66 6.64 12 8 C10.18387512 7.04855402 8.37218919 6.08863067 6.5625 5.125 C5.55316406 4.59132812 4.54382813 4.05765625 3.50390625 3.5078125 C1 2 1 2 0 0 Z " fill="#309D9B" transform="translate(310,133)"/>
<path d="M0 0 C0.33 0.99 0.66 1.98 1 3 C-2.3 6.3 -5.6 9.6 -9 13 C-9.66 12.67 -10.32 12.34 -11 12 C-10.54109375 11.55269531 -10.0821875 11.10539062 -9.609375 10.64453125 C-6.16447701 7.25029352 -2.92744915 3.86423288 0 0 Z " fill="#D1F5F6" transform="translate(369,336)"/>
<path d="M0 0 C3.47725069 3.63530754 4.46026213 8.11537223 5 13 C4.67 13.99 4.34 14.98 4 16 C2.11482947 14.11482947 2.65032358 11.4296919 2.4765625 8.91015625 C2.12754539 6.5989539 2.12754539 6.5989539 -1 5 C-0.67 3.35 -0.34 1.7 0 0 Z " fill="#18A0A3" transform="translate(404,329)"/>
<path d="M0 0 C2.2477975 2.05233685 3.0022242 3.00667261 4 6 C4.66 6.33 5.32 6.66 6 7 C5.34 8.32 4.68 9.64 4 11 C1.17438373 7.20307814 -0.56638908 4.81430721 0 0 Z " fill="#D1FCFA" transform="translate(125,313)"/>
<path d="M0 0 C1.32 0 2.64 0 4 0 C4 0.66 4 1.32 4 2 C5.32 2.33 6.64 2.66 8 3 C8 3.99 8 4.98 8 6 C6.68 6 5.36 6 4 6 C4 5.34 4 4.68 4 4 C3.34 4 2.68 4 2 4 C1.34 2.68 0.68 1.36 0 0 Z " fill="#149BA3" transform="translate(233,416)"/>
<path d="M0 0 C2.97 0 5.94 0 9 0 C7.515 2.475 7.515 2.475 6 5 C4.125 4.75 4.125 4.75 2 4 C1.34 2.68 0.68 1.36 0 0 Z " fill="#2AA09A" transform="translate(345,352)"/>
<path d="M0 0 C0.66 0.33 1.32 0.66 2 1 C2.6328125 3.06640625 2.6328125 3.06640625 3.125 5.5625 C3.29257813 6.38878906 3.46015625 7.21507812 3.6328125 8.06640625 C3.75398438 8.70449219 3.87515625 9.34257812 4 10 C0.1015625 8.234375 0.1015625 8.234375 -0.8125 6.125 C-1.01502672 3.82969717 -0.70156953 2.18266076 0 0 Z " fill="#229C9A" transform="translate(123,314)"/>
<path d="M0 0 C0 0.99 0 1.98 0 3 C-3.465 4.485 -3.465 4.485 -7 6 C-7.66 5.34 -8.32 4.68 -9 4 C-6.31059578 0.90718514 -4.07621501 0 0 0 Z " fill="#EAF1F2" transform="translate(332,235)"/>
<path d="M0 0 C9.88319672 2.79713115 9.88319672 2.79713115 11.1875 5.0625 C11.455625 5.701875 11.72375 6.34125 12 7 C7.69235185 5.43358249 3.93828536 3.31663844 0 1 C0 0.67 0 0.34 0 0 Z " fill="#C7F6F5" transform="translate(130,324)"/>
<path d="M0 0 C4.24223102 -0.3636198 6.58168085 0.4606772 10 3 C10 3.66 10 4.32 10 5 C10.99 5.33 11.98 5.66 13 6 C12.67 6.66 12.34 7.32 12 8 C8 5.33333333 4 2.66666667 0 0 Z " fill="#CAF4F3" transform="translate(378,301)"/>
<path d="M0 0 C0.66 0.66 1.32 1.32 2 2 C0.68 4.97 -0.64 7.94 -2 11 C-3.32 10.34 -4.64 9.68 -6 9 C-4.73046875 7.53515625 -3.4609375 6.0703125 -2.19140625 4.60546875 C-0.79128769 2.89287029 -0.79128769 2.89287029 0 0 Z " fill="#E1E9EC" transform="translate(359,268)"/>
<path d="M0 0 C2.02045442 0.60183749 4.02111039 1.27306096 6 2 C6.33 2.66 6.66 3.32 7 4 C8.64363134 4.72159424 10.31050386 5.39351421 12 6 C11.01 6.495 11.01 6.495 10 7 C6.37151078 5.61457684 3.23472506 4.15648338 0 2 C0 1.34 0 0.68 0 0 Z " fill="#259897" transform="translate(266,106)"/>
<path d="M0 0 C1.32 0.66 2.64 1.32 4 2 C3.67 2.99 3.34 3.98 3 5 C2.01 5.33 1.02 5.66 0 6 C-0.99 5.01 -1.98 4.02 -3 3 C-2.01 2.67 -1.02 2.34 0 2 C0 1.34 0 0.68 0 0 Z " fill="#E5F6F3" transform="translate(186,353)"/>
<path d="M0 0 C0.33 1.32 0.66 2.64 1 4 C-1.97 4 -4.94 4 -8 4 C-5.52914451 0.29371676 -4.37054922 0 0 0 Z " fill="#475B60" transform="translate(253,229)"/>
<path d="M0 0 C0.66 0.99 1.32 1.98 2 3 C0.68 5.64 -0.64 8.28 -2 11 C-2.66 10.67 -3.32 10.34 -4 10 C-3.34 7.36 -2.68 4.72 -2 2 C-1.34 2 -0.68 2 0 2 C0 1.34 0 0.68 0 0 Z " fill="#16A3A7" transform="translate(102,159)"/>
<path d="M0 0 C0.66 0.33 1.32 0.66 2 1 C0.35 2.98 -1.3 4.96 -3 7 C-4.65 6.67 -6.3 6.34 -8 6 C-5.38485683 3.87961365 -2.80362384 1.86908256 0 0 Z " fill="#259795" transform="translate(130,134)"/>
<path d="M0 0 C-1.05041579 2.86477034 -1.70124563 3.83913226 -4.4375 5.3125 C-7 6 -7 6 -10 5 C-8.71186658 4.16121545 -7.41936744 3.32913217 -6.125 2.5 C-5.40570313 2.0359375 -4.68640625 1.571875 -3.9453125 1.09375 C-2 0 -2 0 0 0 Z " fill="#209192" transform="translate(213,86)"/>
<path d="M0 0 C4.7517398 0.43197635 6.92000054 1.32769295 10 5 C9.01 5.495 9.01 5.495 8 6 C6.0546875 5.0390625 6.0546875 5.0390625 3.875 3.625 C3.15054688 3.16351563 2.42609375 2.70203125 1.6796875 2.2265625 C1.12539062 1.82179688 0.57109375 1.41703125 0 1 C0 0.67 0 0.34 0 0 Z " fill="#1F8D91" transform="translate(126,356)"/>
<path d="M0 0 C2.31966166 2.84685749 3.91581154 5.4763875 5 9 C4.67 9.99 4.34 10.98 4 12 C3.18697675 10.54195831 2.37459869 9.08355685 1.5625 7.625 C1.11003906 6.81289063 0.65757812 6.00078125 0.19140625 5.1640625 C-0.5650536 3.79003378 -1.29854631 2.40290739 -2 1 C-1.34 0.67 -0.68 0.34 0 0 Z " fill="#258C8E" transform="translate(403,323)"/>
<path d="M0 0 C0.66 0.66 1.32 1.32 2 2 C-2.75 6 -2.75 6 -5 6 C-5.33 6.66 -5.66 7.32 -6 8 C-6 6.68 -6 5.36 -6 4 C-3 1.75 -3 1.75 0 0 Z " fill="#2D4046" transform="translate(202,221)"/>
<path d="M0 0 C3.63 1.98 7.26 3.96 11 6 C7 7 7 7 4 6 C1.8125 4.0625 1.8125 4.0625 0 2 C0 1.34 0 0.68 0 0 Z " fill="#D0F8F8" transform="translate(342,153)"/>
<path d="M0 0 C4.38889325 0.66498383 7.9811485 2.18757677 12 4 C11.67 4.99 11.34 5.98 11 7 C7.37 5.02 3.74 3.04 0 1 C0 0.67 0 0.34 0 0 Z " fill="#399C9E" transform="translate(254,101)"/>
<path d="M0 0 C0.721875 0.185625 1.44375 0.37125 2.1875 0.5625 C5.12826973 1.01995307 7.14103058 0.73516357 10 0 C9.67 0.99 9.34 1.98 9 3 C3.46153846 3.36923077 3.46153846 3.36923077 1.125 1.5 C0.75375 1.005 0.3825 0.51 0 0 Z " fill="#199398" transform="translate(214,409)"/>
<path d="M0 0 C0.99 0.33 1.98 0.66 3 1 C3 1.66 3 2.32 3 3 C4.32 3.33 5.64 3.66 7 4 C7 5.65 7 7.3 7 9 C4.03595495 6.19195732 1.55500981 3.81684226 0 0 Z " fill="#DCF8F9" transform="translate(302,382)"/>
<path d="M0 0 C0.66 0 1.32 0 2 0 C2 0.99 2 1.98 2 3 C3.98 2.67 5.96 2.34 8 2 C8 2.99 8 3.98 8 5 C4.625 4.6875 4.625 4.6875 1 4 C0.34 3.01 -0.32 2.02 -1 1 C-0.67 0.67 -0.34 0.34 0 0 Z " fill="#DFFAF8" transform="translate(203,366)"/>
<path d="M0 0 C5.75 1.75 5.75 1.75 8 4 C6.02 4.33 4.04 4.66 2 5 C0 1.125 0 1.125 0 0 Z " fill="#14A4A9" transform="translate(176,355)"/>
<path d="M0 0 C0.33 0 0.66 0 1 0 C1 3.3 1 6.6 1 10 C0.01 10.33 -0.98 10.66 -2 11 C-1 3.57142857 -1 3.57142857 0 0 Z " fill="#33A8A8" transform="translate(308,332)"/>
<path d="M0 0 C0.3449145 1.33038449 0.67516582 2.66457061 1 4 C1.226875 4.86625 1.45375 5.7325 1.6875 6.625 C1.8421875 7.800625 1.8421875 7.800625 2 9 C1.34 9.66 0.68 10.32 0 11 C-1.56633048 8.51229865 -2.04100928 7.34447796 -1.6875 4.375 C-1 2 -1 2 0 0 Z " fill="#35494E" transform="translate(244,328)"/>
<path d="M0 0 C5.27749285 0.53851968 9.25645564 1.77343836 14 4 C13.34 4.66 12.68 5.32 12 6 C8.04 4.35 4.08 2.7 0 1 C0 0.67 0 0.34 0 0 Z " fill="#3EA3A4" transform="translate(377,288)"/>
<path d="M0 0 C2.64 1.65 5.28 3.3 8 5 C6.02 5.99 6.02 5.99 4 7 C3.01 6.67 2.02 6.34 1 6 C0.67 4.02 0.34 2.04 0 0 Z " fill="#E8EDEF" transform="translate(281,229)"/>
<path d="M0 0 C1.09570312 0.00902344 2.19140625 0.01804688 3.3203125 0.02734375 C4.16335937 0.03894531 5.00640625 0.05054688 5.875 0.0625 C3.875 2.0625 3.875 2.0625 0.375 2.125 C-0.78 2.104375 -1.935 2.08375 -3.125 2.0625 C-4.115 2.5575 -4.115 2.5575 -5.125 3.0625 C-6.115 2.4025 -7.105 1.7425 -8.125 1.0625 C-5.36047967 -0.31976016 -3.0788637 -0.03275387 0 0 Z " fill="#D9E2E2" transform="translate(250.125,179.9375)"/>
<path d="M0 0 C0.33 0.66 0.66 1.32 1 2 C0.2575 1.979375 -0.485 1.95875 -1.25 1.9375 C-3.70462279 1.99328688 -5.66109261 2.3069904 -8 3 C-8 2.01 -8 1.02 -8 0 C-5.09660535 -1.45169732 -3.09125158 -0.72348441 0 0 Z " fill="#E5FBFA" transform="translate(296,125)"/>
<path d="M0 0 C1.27875 0.28875 2.5575 0.5775 3.875 0.875 C4.95394531 1.11863281 4.95394531 1.11863281 6.0546875 1.3671875 C8 2 8 2 10 4 C8.35 4.33 6.7 4.66 5 5 C4.67 4.01 4.34 3.02 4 2 C2.35 2 0.7 2 -1 2 C-0.67 1.34 -0.34 0.68 0 0 Z " fill="#25A5A3" transform="translate(220,381)"/>
<path d="M0 0 C0 3 0 3 -1 6 C-3.4375 7.75 -3.4375 7.75 -6 9 C-6.66 8.67 -7.32 8.34 -8 8 C-5.36 5.36 -2.72 2.72 0 0 Z " fill="#389E9A" transform="translate(383,342)"/>
<path d="M0 0 C0.99 0.33 1.98 0.66 3 1 C2.67 3.31 2.34 5.62 2 8 C0.4375 6.8125 0.4375 6.8125 -1 5 C-0.6875 2.3125 -0.6875 2.3125 0 0 Z " fill="#E8FAF1" transform="translate(306,324)"/>
<path d="M0 0 C0.33 0.66 0.66 1.32 1 2 C-0.32 3.32 -1.64 4.64 -3 6 C-3.99 5.67 -4.98 5.34 -6 5 C-6 4.34 -6 3.68 -6 3 C-4.02 2.01 -2.04 1.02 0 0 Z " fill="#E6EAED" transform="translate(174,279)"/>
<path d="M0 0 C2.72107452 2.3500189 3.96702492 4.55674975 5 8 C4.67 8.99 4.34 9.98 4 11 C3.34 10.67 2.68 10.34 2 10 C2 8.02 2 6.04 2 4 C1.34 4 0.68 4 0 4 C0 2.68 0 1.36 0 0 Z " fill="#299091" transform="translate(398,157)"/>
<path d="M0 0 C6.4 -0.49230769 6.4 -0.49230769 9.4375 2 C10.2109375 2.99 10.2109375 2.99 11 4 C10.01 4.495 10.01 4.495 9 5 C8.01 4.34 7.02 3.68 6 3 C4.0103005 2.60986284 2.00980131 2.26797351 0 2 C0 1.34 0 0.68 0 0 Z " fill="#1D989D" transform="translate(252,99)"/>
<path d="M0 0 C0.66 0.33 1.32 0.66 2 1 C0.8803014 2.00593243 -0.2459412 3.0045849 -1.375 4 C-2.00148438 4.556875 -2.62796875 5.11375 -3.2734375 5.6875 C-5 7 -5 7 -7 7 C-7 6.34 -7 5.68 -7 5 C-6.34 5 -5.68 5 -5 5 C-4.67 4.01 -4.34 3.02 -4 2 C-2.0625 0.75 -2.0625 0.75 0 0 Z " fill="#1C8E8D" transform="translate(391,389)"/>
<path d="M0 0 C2.5 1.125 2.5 1.125 5 3 C5.3125 6.1875 5.3125 6.1875 5 9 C4.67 7.68 4.34 6.36 4 5 C3.34 5 2.68 5 2 5 C2 4.34 2 3.68 2 3 C1.01 2.67 0.02 2.34 -1 2 C-0.67 1.34 -0.34 0.68 0 0 Z " fill="#37474C" transform="translate(284,327)"/>
<path d="M0 0 C-1 1.5625 -1 1.5625 -3 3 C-5.76614782 2.96726452 -8.26030547 2.49404328 -11 2 C-11 1.67 -11 1.34 -11 1 C-7.26562152 0.12132271 -3.83225427 -0.08912219 0 0 Z " fill="#DDF8F3" transform="translate(384,298)"/>
<path d="M0 0 C-0.25 1.875 -0.25 1.875 -1 4 C-3.0625 5.25 -3.0625 5.25 -5 6 C-5.33 5.34 -5.66 4.68 -6 4 C-2.25 0 -2.25 0 0 0 Z " fill="#EDF2F2" transform="translate(200,220)"/>
<path d="M0 0 C1.875 0.25 1.875 0.25 4 1 C5.25 3.0625 5.25 3.0625 6 5 C4.35 4.67 2.7 4.34 1 4 C0.67 2.68 0.34 1.36 0 0 Z " fill="#E5EBED" transform="translate(260,185)"/>
<path d="M0 0 C3.65316671 1.24976756 4.78065836 1.67098753 7 5 C5.02 5 3.04 5 1 5 C0.67 3.35 0.34 1.7 0 0 Z " fill="#259397" transform="translate(383,143)"/>
<path d="M0 0 C-2.93828597 2.50298434 -5.17902761 3.46930939 -9 4 C-9 3.34 -9 2.68 -9 2 C-5.86501708 0.14223235 -3.62528568 -0.20140476 0 0 Z " fill="#1E928D" transform="translate(384,396)"/>
<path d="M0 0 C0.99 0 1.98 0 3 0 C2.67 1.32 2.34 2.64 2 4 C0.68 4 -0.64 4 -2 4 C-1.34 2.68 -0.68 1.36 0 0 Z " fill="#15A8A1" transform="translate(300,396)"/>
<path d="M0 0 C0.33 0.99 0.66 1.98 1 3 C-1.31 3.33 -3.62 3.66 -6 4 C-6 3.34 -6 2.68 -6 2 C-2.25 0 -2.25 0 0 0 Z " fill="#139DA1" transform="translate(246,394)"/>
<path d="M0 0 C1.65 1.65 3.3 3.3 5 5 C2 7 2 7 0 7 C0 4.69 0 2.38 0 0 Z " fill="#85EFEE" transform="translate(317,384)"/>
<path d="M0 0 C0.66 0.33 1.32 0.66 2 1 C2 1.66 2 2.32 2 3 C2.639375 3.12375 3.27875 3.2475 3.9375 3.375 C4.618125 3.58125 5.29875 3.7875 6 4 C6.33 4.66 6.66 5.32 7 6 C3.51460083 5.35455571 0.97180943 3.89865603 -2 2 C-1.34 1.34 -0.68 0.68 0 0 Z " fill="#ECF9FA" transform="translate(196,360)"/>
<path d="M0 0 C0.99 0.33 1.98 0.66 3 1 C0.59563974 4.60654039 -0.94679607 4.85452932 -5 6 C-3.35 4.02 -1.7 2.04 0 0 Z " fill="#33454B" transform="translate(148,241)"/>
<path d="M0 0 C2.9719385 1.12451727 5.33440687 2.22293791 8 4 C8 4.66 8 5.32 8 6 C7.1646875 5.566875 7.1646875 5.566875 6.3125 5.125 C3.91505355 3.9586747 1.48403061 2.9660119 -1 2 C-0.67 1.34 -0.34 0.68 0 0 Z " fill="#E3ECEE" transform="translate(272,224)"/>
<path d="M0 0 C0.66 1.32 1.32 2.64 2 4 C0.71034824 5.37562854 -0.62689293 6.70766393 -2 8 C-2.66 8 -3.32 8 -4 8 C-2.25 2.25 -2.25 2.25 0 0 Z " fill="#209898" transform="translate(104,153)"/>
<path d="M0 0 C-0.33 0.99 -0.66 1.98 -1 3 C-3.4375 2.625 -3.4375 2.625 -6 2 C-6.33 1.34 -6.66 0.68 -7 0 C-3.98968256 -0.93423645 -3.13349732 -1.04449911 0 0 Z " fill="#119E9B" transform="translate(304,124)"/>
<path d="M0 0 C0.66 0 1.32 0 2 0 C2.33 1.65 2.66 3.3 3 5 C0.03 4.505 0.03 4.505 -3 4 C-3 3.34 -3 2.68 -3 2 C-2.01 2 -1.02 2 0 2 C0 1.34 0 0.68 0 0 Z " fill="#159898" transform="translate(157,370)"/>
<path d="M0 0 C0.66 0 1.32 0 2 0 C2 0.66 2 1.32 2 2 C3.32 2.66 4.64 3.32 6 4 C4.68 4.33 3.36 4.66 2 5 C1.01 3.68 0.02 2.36 -1 1 C-0.67 0.67 -0.34 0.34 0 0 Z " fill="#ECF0F1" transform="translate(242,337)"/>
<path d="M0 0 C1.98 0 3.96 0 6 0 C6.66 1.65 7.32 3.3 8 5 C4.62496331 3.8141763 2.35277269 2.72426311 0 0 Z " fill="#D1F6F5" transform="translate(152,337)"/>
<path d="M0 0 C-3.9813783 1.3271261 -7.85045227 1.06915913 -12 1 C-12 0.34 -12 -0.32 -12 -1 C-7.28400182 -1.92470553 -4.32734391 -2.22923777 0 0 Z " fill="#1E9E9E" transform="translate(389,325)"/>
<path d="M0 0 C1.32 0.66 2.64 1.32 4 2 C3.67 3.65 3.34 5.3 3 7 C1.68 5.68 0.36 4.36 -1 3 C-0.67 2.01 -0.34 1.02 0 0 Z " fill="#C9EEEE" transform="translate(400,315)"/>
<path d="M0 0 C0.99 0 1.98 0 3 0 C3 0.66 3 1.32 3 2 C3.99 2.33 4.98 2.66 6 3 C6 3.66 6 4.32 6 5 C4.125 4.75 4.125 4.75 2 4 C0.75 1.9375 0.75 1.9375 0 0 Z " fill="#E2E9ED" transform="translate(230,291)"/>
<path d="M0 0 C1.65 0 3.3 0 5 0 C5.33 0.99 5.66 1.98 6 3 C5.34 3.66 4.68 4.32 4 5 C2.64567325 3.68799596 1.31266518 2.35368596 0 1 C0 0.67 0 0.34 0 0 Z " fill="#1B3236" transform="translate(205,275)"/>
<path d="M0 0 C0.66 0.33 1.32 0.66 2 1 C1.67 2.32 1.34 3.64 1 5 C-0.65 5 -2.3 5 -4 5 C-2.93453047 2.86906094 -1.70840281 1.63412443 0 0 Z " fill="#183239" transform="translate(238,179)"/>
<path d="M0 0 C2.97 0.495 2.97 0.495 6 1 C6.33 1.99 6.66 2.98 7 4 C5.35 4 3.7 4 2 4 C1.34 2.68 0.68 1.36 0 0 Z " fill="#159A96" transform="translate(321,138)"/>
<path d="M0 0 C0 0.66 0 1.32 0 2 C-0.99 2.33 -1.98 2.66 -3 3 C-3.33 3.66 -3.66 4.32 -4 5 C-5.65 5 -7.3 5 -9 5 C-2.87096774 0 -2.87096774 0 0 0 Z " fill="#259294" transform="translate(158,119)"/>
</svg>
